<svg xmlns="http://www.w3.org/2000/svg" id="based_pixels" width="64" height="64" viewBox="0 0 64 64"><path fill="#0306db" d="M0 0h64v64H0z"/><path fill="#0617ff" d="M63 62h1v1h-1z M62 63h1v1h-1z M61 62h1v1h-1z M62 61h1v1h-1z M63 60h1v1h-1z M51 45h1v1h-1z M50 44h1v1h-1z M49 43h1v1h-1z M47 41h1v1h-1z M46 40h1v1h-1z M44 38h1v1h-1z M63,54h-1v-1h-1v-1h-1v-1h-1v-1h-1v-1h-2v-1h-1v-1h-1v-1h-2v1h1v1h1v1h1v1h1v1h1v1h1v1h1v1h1v1h1v1h1v1h1v1h1v-3h-1v-1Z M63 42h1v1h-1z M63 40h1v1h-1z M63 38h1v1h-1z M56,32h-2v1h3v-1h-1Z M53 31h1v1h-1z M50,30v1h2v-1h-2Z M48 29h1v1h-1z M62,34h-2v-1h-3v1h2v1h3v1h2v-2h-2Z M63 27h1v1h-1z M63,23h-1v1h-3v1h4v-1h1v-2h-1v1Z M63,15h-2v1h-2v1h-1v1h-2v1h-2v1h-1v1h2v-1h2v-1h2v-1h2v-1h2v-1h1v-2h-1v1Z M63,10h-1v1h-1v1h-1v1h-1v1h-1v1h2v-1h2v-1h1v-1h1v-3h-1v1Z M63,4h-1v1h-1v1h-1v1h-1v1h-1v1h-1v1h-1v1h-1v1h-1v1h-1v1h-1v1h-1v1h-1v1h2v-1h1v-1h2v-1h1v-1h1v-1h1v-1h1v-1h1v-1h1v-1h1v-1h1v-1h1v-3h-1v1Z M63,0h-3v1h-1v2h-1v1h-1v1h-1v1h-1v1h-1v1h-1v1h-1v2h1v-1h1v-1h1v-1h1v-1h1v-1h1v-1h1v-1h1v-1h1v-1h1v-1h2V0h-1Z M51 11h1v1h-1z M50 12h1v1h-1z M49 13h1v1h-1z M47 15h1v1h-1z M45 17h1v1h-1z M43 19h1v1h-1z M42 20h1v1h-1z M41 21h1v1h-1z M40 22h1v1h-1z M39 23h1v1h-1z M38 24h1v1h-1z M37 25h1v1h-1z M36 26h1v1h-1z M35 27h1v1h-1z M34 28h1v1h-1z M33 29h1v1h-1z M44 16h1v1h-1z M42 17h1v1h-1z M41 18h1v1h-1z M40 19h1v1h-1z M39 20h1v1h-1z M38 21h1v1h-1z M37 22h1v1h-1z M35 24h1v1h-1z M38,17h1v-2h-1v2Z M40 11h1v1h-1z M39 13h1v1h-1z M41,8v2h1v-3h-1v1Z M43,4h-1v3h1v-2h1v-1h1V1h1V0h-2v2h-1v2Z M42,3v-1h1V0h-2v4h1v-1Z M39 0h1v1h-1z M34,4v-1h-1v2h1v-1Z M32,8v1h1v7h1v-3h1v-3h-1v-4h-1v1h-1v1Z M35,3v6h1V0h-2v2h1v1Z M40,6v1h1v-3h-1v-2h-1v3h1v1Z M36,12v2h-1v3h-1v1h1v3h-1v1h2v-4h1v-3h1v-2h1v-3h1v-3h-1v-2h-1V0h-1v6h1v3h-1v2h-1v1Z M46,5v1h-1v2h-1v3h1v-2h1v-2h1v-2h1v-2h1V1h1V0h-2v1h-1v3h-1v1Z M43,12v1h1v-2h-1v1Z M42 13h1v1h-1z M41 15h1v1h-1z M33,23v1h-1v2h1v-1h1v-3h-1v1Z M29,24v2h1v-3h-1v1Z M31 21h1v1h-1z M45 15h1v1h-1z M44 14h1v1h-1z M43 15h1v1h-1z M46 13h1v1h-1z M47 12h1v1h-1z M46 11h1v1h-1z M45 12h1v1h-1z M53 5h1v1h-1z M54 4h1v1h-1z M53 3h1v1h-1z M55 3h1v1h-1z M56 2h1v1h-1z M55 1h1v1h-1z M56 0h1v1h-1z M54 0h1v1h-1z M53 1h1v1h-1z M52 0h1v1h-1z M51 1h1v1h-1z M52 2h1v1h-1z M54 2h1v1h-1z M52 4h1v1h-1z M48 10h1v1h-1z M50 8h1v1h-1z M51 7h1v1h-1z M52 6h1v1h-1z M51 5h1v1h-1z M49 9h1v1h-1z M49,8v-1h-1v2h1v-1Z M50,6v-1h-1v2h1v-1Z M51,3h-1v2h1v-2Z M47 9h1v1h-1z M48 17h1v1h-1z M47 18h1v1h-1z M46 19h1v1h-1z M45 20h1v1h-1z M44 21h1v1h-1z M43 22h1v1h-1z M42 23h1v1h-1z M56,15v1h2v-1h-2Z M55 16h1v1h-1z M53,17v1h2v-1h-2Z M52 18h1v1h-1z M50 19h1v1h-1z M49 20h1v1h-1z M51,21v1h2v-1h-2Z M49,22v1h2v-1h-2Z M47,23v1h2v-1h-2Z M45,24h-1v1h1v1h1v-1h1v-1h-2Z M43 26h1v1h-1z M41 26h1v1h-1z M63,19h-2v1h-2v1h-1v1h2v-1h3v-1h1v-2h-1v1Z M56,22v1h2v-1h-2Z M54,23v1h2v-1h-2Z M52 24h1v1h-1z M49 25h1v1h-1z M48 26h1v1h-1z M46 27h1v1h-1z M57,25h-1v1h3v-1h-2Z M62 28h1v1h-1z M62 26h1v1h-1z M61 27h1v1h-1z M60 26h1v1h-1z M59 27h1v1h-1z M60 28h1v1h-1z M58 28h1v1h-1z M56 28h1v1h-1z M62,31h-2v1h4v-1h-2Z M53 28h1v1h-1z M50 27h1v1h-1z M52,27h2v-1h-2v1Z M59,30h-3v1h4v-1h-1Z M62 39h1v1h-1z M62 41h1v1h-1z M61 38h1v1h-1z M61 40h1v1h-1z M60 37h1v1h-1z M60 39h1v1h-1z M59 38h1v1h-1z M58 39h1v1h-1z M57 38h1v1h-1z M57 36h1v1h-1z M56 37h1v1h-1z M55 36h1v1h-1z M56 35h1v1h-1z M53 36h1v1h-1z M54 35h1v1h-1z M52 35h1v1h-1z M52,33h-2v1h1v1h1v-2Z M49,32h-1v1h2v-1h-1Z M45,30v1h2v-1h-2Z M43 29h1v1h-1z M40,29h2v-1h-3v1h-2v1h3v-1Z M36 31h1v1h-1z M34 31h1v1h-1z M53 34h1v1h-1z M58 37h1v1h-1z M62,44v-1h-2v-1h-1v-1h-2v-1h-1v-1h-2v-1h-2v1h1v1h2v1h1v1h2v1h1v1h2v1h2v1h1v-2h-2Z M51,37h-1v1h2v-1h-1Z M49 36h1v1h-1z M48 35h1v1h-1z M46 34h1v1h-1z M44,33v1h2v-1h-2Z M43 32h1v1h-1z M41 31h1v1h-1z M63,48h-1v-1h-2v-1h-1v-1h-2v-1h-1v-1h-2v-1h-1v-1h-1v-1h-2v1h1v1h1v1h1v1h1v1h1v1h2v1h1v1h2v1h1v1h1v1h1v1h1v-3h-1v-1Z M49 39h1v1h-1z M46 37h1v1h-1z M44,36v-1h-1v-1h-2v1h1v1h1v1h1v-1Z M40 33h1v1h-1z M38 32h1v1h-1z M62 59h1v1h-1z M61 58h1v1h-1z M60 57h1v1h-1z M59 56h1v1h-1z M58 55h1v1h-1z M57 54h1v1h-1z M56 53h1v1h-1z M55 52h1v1h-1z M54 51h1v1h-1z M53 50h1v1h-1z M52 49h1v1h-1z M51 48h1v1h-1z M50 47h1v1h-1z M49 46h1v1h-1z M48 45h1v1h-1z M47 44h1v1h-1z M46 43h1v1h-1z M45 42h1v1h-1z M43 40h1v1h-1z M42 39h1v1h-1z M41 38h1v1h-1z M39 36h1v1h-1z M38 35h1v1h-1z M37 34h1v1h-1z M36 33h1v1h-1z M35,34h-1v2h1v-2Z M35 36h1v1h-1z M37,37h-1v2h1v-2Z M37 39h1v1h-1z M51,61v-1h-1v-2h-1v-2h-1v-2h-2v-2h-1v-2h-1v-2h-1v-2h-1v-2h-1v-1h-1v-2h-1v-1h-1v2h1v2h1v2h1v2h1v2h1v2h1v2h1v2h1v2h1v2h1v2h1v2h3v-2h-1v-1Z M41 63h1v1h-1z M39 63h1v1h-1z M37 63h1v1h-1z M35 63h1v1h-1z M33 63h1v1h-1z M40 62h1v1h-1z M38 62h1v1h-1z M36 62h1v1h-1z M34 62h1v1h-1z M32 62h1v1h-1z M39 61h1v1h-1z M37 61h1v1h-1z M35 61h1v1h-1z M33 61h1v1h-1z M38 60h1v1h-1z M36 60h1v1h-1z M34 60h1v1h-1z M37 59h1v1h-1z M39 59h1v1h-1z M40 60h1v1h-1z M35 59h1v1h-1z M33 59h1v1h-1z M38 58h1v1h-1z M39 57h1v1h-1z M36 58h1v1h-1z M34 58h1v1h-1z M32 58h1v1h-1z M37 57h1v1h-1z M35 57h1v1h-1z M33 57h1v1h-1z M38 56h1v1h-1z M36 56h1v1h-1z M34 56h1v1h-1z M37 55h1v1h-1z M35 55h1v1h-1z M33 55h1v1h-1z M36 54h1v1h-1z M34 54h1v1h-1z M32 54h1v1h-1z M35 53h1v1h-1z M37 53h1v1h-1z M33 53h1v1h-1z M36 52h1v1h-1z M34 52h1v1h-1z M35 51h1v1h-1z M33 51h1v1h-1z M36 50h1v1h-1z M34 50h1v1h-1z M32 50h1v1h-1z M35 49h1v1h-1z M33 49h1v1h-1z M34 48h1v1h-1z M35 47h1v1h-1z M33 47h1v1h-1z M34 46h1v1h-1z M31 46h1v1h-1z M33 45h1v1h-1z M34 44h1v1h-1z M32 42h1v1h-1z M31 41h1v1h-1z M32 40h1v1h-1z M31 39h1v1h-1z M33 43h1v1h-1z M46,61v-1h-1v-2h-1v-2h-1v-2h-1v-2h-1v-2h-1v-2h-1v-2h-1v-2h-1v-2h-1v-2h-1v-1h-1v2h1v2h1v3h1v2h1v2h1v4h1v2h1v2h1v2h1v2h1v2h3v-2h-1v-1Z M34,37h-1v2h1v-2Z M33,35h-1v2h1v-2Z M31 34h1v1h-1z M33,33v-2h-2v2h2Z M61 60h1v1h-1z M60 59h1v1h-1z M59 58h1v1h-1z M58 57h1v1h-1z M57 56h1v1h-1z M56 55h1v1h-1z M55 54h1v1h-1z M54 53h1v1h-1z M53 52h1v1h-1z M52 51h1v1h-1z M51 50h1v1h-1z M50 49h1v1h-1z M49 48h1v1h-1z M48 47h1v1h-1z M47 46h1v1h-1z M46 45h1v1h-1z M45 44h1v1h-1z M43 43h1v1h-1z M42 42h1v1h-1z M41 41h1v1h-1z M60 61h1v1h-1z M59 60h1v1h-1z M58 59h1v1h-1z M57 58h1v1h-1z M56 57h1v1h-1z M55 56h1v1h-1z M54 55h1v1h-1z M53 54h1v1h-1z M52 53h1v1h-1z M51 52h1v1h-1z M50 51h1v1h-1z M49 50h1v1h-1z M48 49h1v1h-1z M47 48h1v1h-1z M46 47h1v1h-1z M45 46h1v1h-1z M44 45h1v1h-1z M59 62h1v1h-1z M60 63h1v1h-1z M58 61h1v1h-1z M57 60h1v1h-1z M56 59h1v1h-1z M55 58h1v1h-1z M54 57h1v1h-1z M53 56h1v1h-1z M52 55h1v1h-1z M51 54h1v1h-1z M50 55h1v1h-1z M51 56h1v1h-1z M52 57h1v1h-1z M53 58h1v1h-1z M54 59h1v1h-1z M53 60h1v1h-1z M54 61h1v1h-1z M55 62h1v1h-1z M54 63h1v1h-1z M56 63h1v1h-1z M55 60h1v1h-1z M56 61h1v1h-1z M57 62h1v1h-1z M58 63h1v1h-1z M50 53h1v1h-1z M49 52h1v1h-1z M48 51h1v1h-1z M47 50h1v1h-1z M46 49h1v1h-1z M0 62h1v1h-1z M1 63h1v1h-1z M2 62h1v1h-1z M1 61h1v1h-1z M0 60h1v1h-1z M1,57h1v-1h1v-1h1v-1h1v-1h1v-1h1v-1h1v-1h1v-1h1v-1h1v-1h1v-1h-2v1h-1v1h-1v1h-2v1h-1v1h-1v1h-1v1h-1v1H1v1H0v3H1v-1Z M12 45h1v1h-1z M13 44h1v1h-1z M14 43h1v1h-1z M16 41h1v1h-1z M17 40h1v1h-1z M19 38h1v1h-1z M1,51h1v-1h1v-1h1v-1h2v-1h1v-1h2v-1h1v-1h1v-1h1v-1h1v-1h1v-1h-2v1h-1v1h-1v1h-2v1h-1v1h-2v1h-1v1H2v1H1v1H0v3H1v-1Z M1,45h2v-1h2v-1h1v-1h2v-1h1v-1h2v-1h1v-1h-2v1h-2v1h-1v1h-2v1h-1v1H2v1H0v2H1v-1Z M0 42h1v1h-1z M0 40h1v1h-1z M0 38h1v1h-1z M2,36v-1h3v-1h2v-1h-3v1H0v2H2Z M9,33h1v-1h-3v1h2Z M33,19v-2h-1v3h1v-1Z M1 39h1v1h-1z M1 41h1v1h-1z M2 38h1v1h-1z M2 40h1v1h-1z M3 37h1v1h-1z M3 39h1v1h-1z M4 38h1v1h-1z M5 39h1v1h-1z M6 38h1v1h-1z M6 36h1v1h-1z M7 37h1v1h-1z M8 36h1v1h-1z M7 35h1v1h-1z M10 36h1v1h-1z M9 35h1v1h-1z M11 35h1v1h-1z M13,34h1v-1h-2v2h1v-1Z M16,33v-1h-2v1h2Z M10 34h1v1h-1z M5 37h1v1h-1z M14,38v-1h-2v1h2Z M14 36h1v1h-1z M15 35h1v1h-1z M17 34h1v1h-1z M20,34v-1h-2v1h2Z M20 32h1v1h-1z M14 39h1v1h-1z M17 37h1v1h-1z M23,34h-2v1h-1v2h1v-1h1v-1h1v-1Z M23 33h1v1h-1z M25 32h1v1h-1z M1 59h1v1h-1z M2 58h1v1h-1z M3 57h1v1h-1z M4 56h1v1h-1z M5 55h1v1h-1z M6 54h1v1h-1z M7 53h1v1h-1z M8 52h1v1h-1z M9 51h1v1h-1z M10 50h1v1h-1z M11 49h1v1h-1z M12 48h1v1h-1z M13 47h1v1h-1z M14 46h1v1h-1z M15 45h1v1h-1z M16 44h1v1h-1z M17 43h1v1h-1z M18 42h1v1h-1z M20 40h1v1h-1z M21 39h1v1h-1z M22 38h1v1h-1z M24 36h1v1h-1z M25 35h1v1h-1z M26 34h1v1h-1z M27 33h1v1h-1z M30,35v-1h-1v2h1v-1Z M28 36h1v1h-1z M28,38v-1h-1v2h1v-1Z M26 39h1v1h-1z M17,59v-1h1v-2h1v-2h1v-2h1v-2h1v-2h1v-2h1v-2h1v-2h1v-2h-1v1h-1v2h-1v1h-1v2h-1v2h-1v2h-1v2h-1v2h-2v2h-1v2h-1v2h-1v2h-1v2h3v-2h1v-2h1v-1Z M22,59v-1h1v-2h1v-2h1v-4h1v-2h1v-2h1v-3h1v-2h1v-2h-1v1h-1v2h-1v2h-1v2h-1v2h-1v2h-1v2h-1v2h-1v2h-1v2h-1v2h-1v2h-1v2h3v-2h1v-2h1v-1Z M22 63h1v1h-1z M24 63h1v1h-1z M26 63h1v1h-1z M28 63h1v1h-1z M30 63h1v1h-1z M23 62h1v1h-1z M25 62h1v1h-1z M27 62h1v1h-1z M29 62h1v1h-1z M24 61h1v1h-1z M26 61h1v1h-1z M28 61h1v1h-1z M30 61h1v1h-1z M25 60h1v1h-1z M27 60h1v1h-1z M29 60h1v1h-1z M31 60h1v1h-1z M26 59h1v1h-1z M24 59h1v1h-1z M23 60h1v1h-1z M28 59h1v1h-1z M30 59h1v1h-1z M25 58h1v1h-1z M24 57h1v1h-1z M27 58h1v1h-1z M29 58h1v1h-1z M26 57h1v1h-1z M28 57h1v1h-1z M30 57h1v1h-1z M25 56h1v1h-1z M27 56h1v1h-1z M29 56h1v1h-1z M31 56h1v1h-1z M26 55h1v1h-1z M28 55h1v1h-1z M30 55h1v1h-1z M27 54h1v1h-1z M29 54h1v1h-1z M28 53h1v1h-1z M26 53h1v1h-1z M30 53h1v1h-1z M27 52h1v1h-1z M29 52h1v1h-1z M31 52h1v1h-1z M28 51h1v1h-1z M30 51h1v1h-1z M27 50h1v1h-1z M29 50h1v1h-1z M28 49h1v1h-1z M30 49h1v1h-1z M29 48h1v1h-1z M28 47h1v1h-1z M31 48h1v1h-1z M30 47h1v1h-1z M29 46h1v1h-1z M30 45h1v1h-1z M29 44h1v1h-1z M31 44h1v1h-1z M30 43h1v1h-1z M30 37h1v1h-1z M2 60h1v1h-1z M3 59h1v1h-1z M4 58h1v1h-1z M5 57h1v1h-1z M6 56h1v1h-1z M7 55h1v1h-1z M8 54h1v1h-1z M9 53h1v1h-1z M10 52h1v1h-1z M11 51h1v1h-1z M12 50h1v1h-1z M13 49h1v1h-1z M14 48h1v1h-1z M15 47h1v1h-1z M16 46h1v1h-1z M17 45h1v1h-1z M18 44h1v1h-1z M20 43h1v1h-1z M21 42h1v1h-1z M22 41h1v1h-1z M3 61h1v1h-1z M4 60h1v1h-1z M5 59h1v1h-1z M6 58h1v1h-1z M7 57h1v1h-1z M8 56h1v1h-1z M9 55h1v1h-1z M10 54h1v1h-1z M11 53h1v1h-1z M12 52h1v1h-1z M13 51h1v1h-1z M14 50h1v1h-1z M15 49h1v1h-1z M16 48h1v1h-1z M17 47h1v1h-1z M18 46h1v1h-1z M19 45h1v1h-1z M4 62h1v1h-1z M3 63h1v1h-1z M5 61h1v1h-1z M6 60h1v1h-1z M7 59h1v1h-1z M8 58h1v1h-1z M9 57h1v1h-1z M10 56h1v1h-1z M11 55h1v1h-1z M12 54h1v1h-1z M13 55h1v1h-1z M12 56h1v1h-1z M11 57h1v1h-1z M10 58h1v1h-1z M9 59h1v1h-1z M10 60h1v1h-1z M9 61h1v1h-1z M8 62h1v1h-1z M9 63h1v1h-1z M7 63h1v1h-1z M8 60h1v1h-1z M7 61h1v1h-1z M6 62h1v1h-1z M5 63h1v1h-1z M13 53h1v1h-1z M14 52h1v1h-1z M15 51h1v1h-1z M16 50h1v1h-1z M17 49h1v1h-1z M10 31h1v1h-1z M14,31v-1h-2v1h2Z M15 29h1v1h-1z M0 27h1v1h-1z M2,1v1h1v1h1v1h1v1h1v1h1v1h1v1h1v1h1v1h1v1h1v-2h-1v-1h-1v-1h-1v-1h-1v-1h-1v-1h-1v-1h-1V1h-1V0H0v1H2Z M12 11h1v1h-1z M13 12h1v1h-1z M14 13h1v1h-1z M16 15h1v1h-1z M18 17h1v1h-1z M20 19h1v1h-1z M21 20h1v1h-1z M22 21h1v1h-1z M23 22h1v1h-1z M24 23h1v1h-1z M25 24h1v1h-1z M26 25h1v1h-1z M27 26h1v1h-1z M28 27h1v1h-1z M29 28h1v1h-1z M30 29h1v1h-1z M19 16h1v1h-1z M21 17h1v1h-1z M22 18h1v1h-1z M23 19h1v1h-1z M24 20h1v1h-1z M25 21h1v1h-1z M26 22h1v1h-1z M25,16v1h1v-2h-1v1Z M23 11h1v1h-1z M24 13h1v1h-1z M22,8v2h1v-3h-1v1Z M19,2v2h1v1h1v2h1v-3h-1v-2h-1V0h-2v1h1v1Z M22,3v1h1V0h-2v2h1v1Z M24 0h1v1h-1z M32,5V0h-1v6h1v-1Z M29,7v6h1v3h1v-6h-1V1h-1V0h-1v6h1v1Z M25,7h-1v3h1v3h1v2h1v3h1v-1h1v-3h-1v-3h-1v-2h-1v-3h1V0h-1v5h-1v2Z M23,6v1h1v-2h1v-3h-1v2h-1v2Z M30 18h1v1h-1z M15,2v1h1v2h1v2h1v2h1v2h1v-3h-1v-2h-1v-2h-1V1h-1V0h-2v1h1v1Z M20,13h1v-2h-1v2Z M21 13h1v1h-1z M22 15h1v1h-1z M24 17h1v1h-1z M26 19h1v1h-1z M28 21h1v1h-1z M31,27v1h1v1h1v-2h-1v-1h-1v1Z M18 15h1v1h-1z M19 14h1v1h-1z M20 15h1v1h-1z M17 13h1v1h-1z M16 12h1v1h-1z M17 11h1v1h-1z M18 12h1v1h-1z M10 5h1v1h-1z M9 4h1v1h-1z M10 3h1v1h-1z M8 3h1v1h-1z M7 2h1v1h-1z M8 1h1v1h-1z M7 0h1v1h-1z M9 0h1v1h-1z M10 1h1v1h-1z M11 0h1v1h-1z M12 1h1v1h-1z M11 2h1v1h-1z M9 2h1v1h-1z M11 4h1v1h-1z M15 10h1v1h-1z M13 8h1v1h-1z M12 7h1v1h-1z M11 6h1v1h-1z M12 5h1v1h-1z M14 9h1v1h-1z M15,9h1v-2h-1v2Z M14,7h1v-2h-1v2Z M14,4v-1h-1v2h1v-1Z M16 9h1v1h-1z M1,7h1v1h1v1h1v1h1v1h1v1h1v1h1v1h1v1h2v1h1v1h2v-1h-1v-1h-1v-1h-1v-1h-1v-1h-1v-1h-1v-1h-1v-1h-1v-1h-1v-1h-1v-1h-1v-1h-1v-1H1v-1H0v3H1v1Z M15 17h1v1h-1z M16 18h1v1h-1z M17 19h1v1h-1z M18 20h1v1h-1z M19 21h1v1h-1z M20 22h1v1h-1z M21 23h1v1h-1z M1,13h1v1h2v1h2v-1h-1v-1h-1v-1h-1v-1h-1v-1H1v-1H0v3H1v1Z M7,16h1v-1h-2v1h1Z M8 16h1v1h-1z M10,18h1v-1h-2v1h1Z M11 18h1v1h-1z M13 19h1v1h-1z M14 20h1v1h-1z M1,17h2v1h2v1h2v1h2v1h2v-1h-1v-1h-2v-1h-2v-1h-1v-1h-2v-1H1v-1H0v2H1v1Z M12,22h1v-1h-2v1h1Z M14,23h1v-1h-2v1h1Z M16,24h1v-1h-2v1h1Z M18,25v1h1v-1h1v-1h-3v1h1Z M20 26h1v1h-1z M22 26h1v1h-1z M1,21h3v1h2v-1h-1v-1h-2v-1H1v-1H0v2H1v1Z M7,23h1v-1h-2v1h1Z M9,24h1v-1h-2v1h1Z M11 24h1v1h-1z M14 25h1v1h-1z M15 26h1v1h-1z M17 27h1v1h-1z M1,25h4v-1H2v-1H1v-1H0v2H1v1Z M6,26h2v-1h-3v1h1Z M1 28h1v1h-1z M1 26h1v1h-1z M2 27h1v1h-1z M3 26h1v1h-1z M4 27h1v1h-1z M3 28h1v1h-1z M5 28h1v1h-1z M7 28h1v1h-1z M2,32h2v-1H0v1H2Z M10 28h1v1h-1z M13 27h1v1h-1z M12,27v-1h-2v1h2Z M6,31h2v-1H4v1h2Z M17,31h2v-1h-2v1Z M20 29h1v1h-1z M24,28h-2v1h2v1h3v-1h-2v-1h-1Z M27 31h1v1h-1z M29 31h1v1h-1z M22 31h1v1h-1z"/><path fill="#0037ff" d="M54,32v1h3v-1h-3Z M53 31h1v1h-1z M50,30v1h2v-1h-2Z M60,34v-1h-3v1h2v1h3v1h2v-2h-4Z M63,3v1h-1v1h-1v1h-1v1h-1v1h-1v1h-1v1h-1v1h-1v1h-1v1h-1v1h-1v1h-1v1h-1v1h2v-1h1v-1h2v-1h1v-1h1v-1h1v-1h1v-1h1v-1h1v-1h1v-1h1v-1h1v-3h-1Z M36 26h1v1h-1z M34 28h1v1h-1z M42,2h1V0h-1v1h-1v3h1v-2Z M41,4h-1v3h1v-3Z M40,7h-1v3h1v-3Z M38,13h1v-2h-1v-1h-1v5h1v-2Z M37,15h-1v2h1v-2Z M50,0h-2v1h-1v3h-1v2h-1v2h-1v3h1v-2h1v-2h1v-2h1v-2h1V1h1V0Z M29,25v1h1v-2h-1v1Z M32 25h1v1h-1z M32 28h1v1h-1z M45 24h1v1h-1z M43 26h1v1h-1z M63,19h-2v1h-2v1h-1v1h2v-1h3v-1h1v-2h-1v1Z M56,22v1h2v-1h-2Z M54,23v1h2v-1h-2Z M46 27h1v1h-1z M61 24h1v1h-1z M58,26v-1h-2v1h2Z M52 26h1v1h-1z M45 30h1v1h-1z M39 28h1v1h-1z M37 29h1v1h-1z M34 31h1v1h-1z M48 35h1v1h-1z M45 33h1v1h-1z M41 31h1v1h-1z M43 36h1v1h-1z M42 34h1v1h-1z M40 33h1v1h-1z M38 32h1v1h-1z M38 35h1v1h-1z M36 33h1v1h-1z M34 34h1v1h-1z M32 35h1v1h-1z M4,33v1H0v2h2v-1h3v-1h2v-1h-3Z M7,32v1h3v-1h-3Z M32,20h1v-3h-1v3Z M15 35h1v1h-1z M18 33h1v1h-1z M20 36h1v1h-1z M21 34h1v1h-1z M23 33h1v1h-1z M25 32h1v1h-1z M25 35h1v1h-1z M27 33h1v1h-1z M29 34h1v1h-1z M10 31h1v1h-1z M12,30v1h2v-1h-2Z M27 26h1v1h-1z M29 28h1v1h-1z M22,4h1V1h-1V0h-1v2h1v2Z M29,0h-1v6h1v6h1V3h-1V0Z M23,7h1v-3h-1v3Z M24,10h1v-3h-1v3Z M27,13v-3h-1v1h-1v2h1v2h1v-2Z M27,17h1v-2h-1v2Z M19,11h1v-3h-1v-2h-1v-2h-1V1h-1V0h-2v1h1v2h1v2h1v2h1v2h1v2Z M13,15h-1v-1h-1v-1h-1v-1h-1v-1h-1v-1h-1v-1h-1v-1h-1v-1h-1v-1h-1v-1h-1v-1h-1v-1H0v3h1v1h1v1h1v1h1v1h1v1h1v1h1v1h1v1h1v1h2v1h1v1h2v-1h-1v-1Z M18 24h1v1h-1z M20 26h1v1h-1z M1,21h3v1h2v-1h-1v-1h-2v-1H1v-1H0v2h1v1Z M8,23v-1h-2v1h2Z M10,24v-1h-2v1h2Z M17 27h1v1h-1z M2 24h1v1h-1z M6,25v1h2v-1h-2Z M11 26h1v1h-1z M18 30h1v1h-1z M24 28h1v1h-1z M26 29h1v1h-1z M29 31h1v1h-1z M22 31h1v1h-1z"/></svg>
