<svg xmlns="http://www.w3.org/2000/svg" xmlns:xlink="http://www.w3.org/1999/xlink" width="1091.8" height="1091.8" xmlns:v="https://vecta.io/nano"><style><![CDATA[.Q{fill:#fff}.R{opacity:.5}.S{opacity:.35}.T{opacity:.15}]]></style><circle cx="545.9" cy="545.9" r="545.9" fill="#fa34f3"/><path d="M198.7 498.7h-15.6v-10.2h44.3v10.2H212v42.8h-13.2v-42.8zm34.4 37c-4.4-4.4-6.7-11.2-6.7-20.4 0-9.6 2.2-16.6 6.6-21s11-6.6 19.8-6.6 15.4 2.2 19.8 6.6 6.6 11.4 6.6 21c0 9.2-2.2 16-6.7 20.4-4.4 4.4-11 6.7-19.7 6.7-8.6-.1-15.2-2.3-19.7-6.7zm29.5-8.5c2.1-2.5 3.1-6.5 3.1-12 0-5.9-1-10-3-12.5s-5.3-3.7-9.8-3.7c-4.6 0-7.8 1.2-9.9 3.7-2 2.5-3 6.6-3 12.5 0 5.4 1 9.4 3.1 12s5.3 3.8 9.8 3.8c4.4.1 7.7-1.2 9.7-3.8zm23.4-38.7h26.1c6.1 0 10.7 1.7 13.9 5.2s4.7 8.1 4.7 13.7c0 3.6-.8 6.8-2.3 9.6a15.34 15.34 0 0 1-6.6 6.5c-2.9 1.6-6.2 2.3-10 2.3h-12.5v15.6H286v-52.9zm22.8 27.3c2.7 0 4.8-.8 6.3-2.3 1.4-1.5 2.1-3.5 2.1-6.1 0-2.8-.7-4.9-2-6.4s-3.3-2.2-6-2.2h-10v17h9.6zm-82.1 61.6l-8.7 1.4v-11.1l22-3.3v53.8h-13.2v-40.8zm25.8 35.3c-3.9-4.6-5.8-11.5-5.8-20.7 0-9.1 1.9-16 5.8-20.7s10.1-7 18.8-7 14.9 2.3 18.8 7 5.8 11.5 5.8 20.7-1.9 16.1-5.8 20.7-10.2 7-18.8 7c-8.7 0-14.9-2.4-18.8-7zm27.4-8.4c1.7-2.7 2.6-6.8 2.6-12.3s-.9-9.6-2.6-12.3-4.6-4-8.6-4-6.9 1.3-8.6 4-2.6 6.8-2.6 12.3.8 9.6 2.6 12.3c1.7 2.7 4.6 4 8.6 4s6.9-1.3 8.6-4zm433.2-123H724v16.9l15-16.9h12.5l-15.6 17.8 16.5 25.8h-11.7L729 506.1l-5.1 5.6V525H713v-43.7zm44.9 0h10.9V525H758v-43.7zm17.8 0h9.4l18.6 26.1v-26.1h11V525h-9.4l-18.6-26v26h-10.9v-43.7zm51.6 43.7c-2.5-.4-4.7-1-6.5-1.9v-9.3c2 .9 4.2 1.6 6.6 2.1s4.7.8 6.8.8c2.9 0 5-.3 6.2-.8s1.8-1.6 1.8-3.2c0-1.1-.3-2-.9-2.7s-1.6-1.2-2.9-1.7-3.4-1.1-6.3-2c-3-.9-5.4-1.9-7.1-3s-3-2.4-3.8-4-1.2-3.5-1.2-5.9c0-4.2 1.5-7.4 4.5-9.6s7.4-3.3 13.2-3.3c2.4 0 4.8.2 7.2.5 2.4.4 4.4.8 6 1.4v9.4c-3.8-1.5-7.6-2.2-11.6-2.2-2.8 0-4.8.3-6.2.8s-2 1.5-2 3c0 .9.3 1.7.8 2.3s1.4 1.1 2.6 1.5a101.33 101.33 0 0 0 5.7 1.7c3.5 1 6.2 2.1 8.1 3.4s3.3 2.8 4 4.5 1.1 3.7 1.1 6c0 4-1.5 7.1-4.6 9.4s-7.6 3.5-13.6 3.5c-2.7-.1-5.4-.3-7.9-.7zm31.8-43.7h10.9v17.3h17.1v-17.3h10.9V525h-10.9v-17.3h-17.1V525h-10.9v-43.7zm45.8 0h11V525h-11v-43.7zm17.9 0h21.5c5 0 8.8 1.4 11.4 4.3s3.9 6.6 3.9 11.3c0 3-.6 5.6-1.9 7.9s-3.1 4.1-5.5 5.4-5.1 1.9-8.2 1.9h-10.3V525h-10.9v-43.7zm18.7 22.5c2.3 0 4-.6 5.1-1.9 1.2-1.2 1.8-2.9 1.8-5 0-2.3-.5-4.1-1.6-5.3s-2.7-1.8-4.9-1.8h-8.2v14h7.8zM733.5 610.6c-3.2-.6-6-1.3-8.3-2.4v-11.9c2.6 1.2 5.5 2.1 8.5 2.7 3.1.7 6 1 8.8 1 3.8 0 6.4-.3 8-1s2.4-2 2.4-4.1c0-1.5-.4-2.6-1.2-3.4s-2-1.6-3.7-2.2l-8.1-2.6c-3.9-1.2-7-2.5-9.2-3.9s-3.8-3.1-4.8-5.1-1.5-4.5-1.5-7.5c0-5.4 1.9-9.5 5.8-12.3s9.5-4.2 16.9-4.2c3.1 0 6.2.2 9.3.7s5.7 1 7.7 1.7v12c-4.8-1.9-9.8-2.9-14.9-2.9-3.5 0-6.2.3-7.9 1s-2.6 2-2.6 3.9c0 1.2.3 2.2 1 2.9s1.8 1.4 3.4 1.9c1.5.6 4 1.3 7.3 2.1 4.5 1.2 7.9 2.7 10.4 4.4s4.2 3.6 5.1 5.8c1 2.2 1.4 4.7 1.4 7.7 0 5.1-2 9.1-5.9 12.1-4 3-9.8 4.4-17.4 4.4a66.95 66.95 0 0 1-10.5-.8zm36.1-7.2l26.3-37.8h-25v-11.2h43.4v7.8l-26 37.5h26.6v10.8h-45.2v-7.1zm49-49h12l23.9 33.5v-33.5h14.1v56.1h-12.1L832.6 577v33.5h-14v-56.1zm93.5 52.8c-3.9-2.8-5.8-7-5.8-12.6 0-2.9.7-5.5 2.2-7.9s3.5-4.1 6-5.1c-2.3-1.2-4-2.7-5.1-4.7-1.1-1.9-1.7-4.1-1.7-6.5 0-5.3 1.8-9.4 5.4-12.4s9.2-4.4 16.7-4.4c7.6 0 13.2 1.5 16.8 4.4s5.4 7.1 5.4 12.4c0 2.5-.6 4.8-1.7 6.8-1.1 2.1-2.9 3.7-5.3 4.8 5.6 2.3 8.5 6.5 8.5 12.5 0 5.6-1.9 9.8-5.8 12.6s-9.8 4.2-17.8 4.2-14-1.3-17.8-4.1zm25.4-7.8c1.7-1 2.5-2.7 2.5-5.1 0-2-.5-3.5-1.6-4.4-1.1-1-2.9-1.7-5.4-2.3l-6.4-1.3c-2.3.5-4.1 1.4-5.2 2.5-1.2 1.2-1.7 2.8-1.7 5.1 0 2.5.8 4.3 2.5 5.4s4.2 1.7 7.7 1.7 5.9-.6 7.6-1.6zm-.4-24.1c1-1.1 1.5-2.7 1.5-4.7 0-2.2-.7-3.8-2.2-4.9s-3.7-1.6-6.6-1.6-5.2.5-6.6 1.6c-1.5 1-2.2 2.7-2.2 5 0 3.5 1.9 5.6 5.7 6.4l5.3 1c2.3-.8 4-1.7 5.1-2.8z"/><path d="M529.2 1056.4h-.2-.6c-2.7-.1-4.8-2.3-4.7-5s2.3-4.8 5-4.7h.6c2.7.1 4.8 2.3 4.7 5 0 2.6-2.2 4.7-4.8 4.7zm61.8-1.7c-2.5 0-4.6-1.9-4.8-4.4-.3-2.7 1.7-5 4.4-5.3l.6-.1c2.6-.2 5 1.7 5.2 4.4s-1.7 5-4.4 5.2l-.6.1c-.1.1-.3.1-.4.1zm-123.9-4.1c-.2 0-.5 0-.7-.1l-.6-.1c-2.6-.4-4.4-2.9-4-5.5s2.9-4.4 5.5-4l.6.1c2.6.4 4.5 2.9 4 5.5-.4 2.3-2.4 4.1-4.8 4.1zm185.5-5.2c-2.2 0-4.2-1.5-4.7-3.8-.6-2.6 1.1-5.2 3.7-5.8l.6-.1c2.6-.6 5.2 1.1 5.8 3.7s-1.1 5.2-3.7 5.8l-.6.1c-.4 0-.7.1-1.1.1zm-246.4-8.3c-.4 0-.9-.1-1.3-.2l-.6-.2c-2.6-.7-4.1-3.4-3.3-6 .7-2.6 3.4-4.1 6-3.3l.6.2c2.6.7 4.1 3.4 3.3 6-.7 2.1-2.6 3.5-4.7 3.5zm306.5-8.6c-2 0-3.9-1.2-4.6-3.2-.9-2.5.4-5.3 2.9-6.2l.6-.2c2.5-.9 5.3.5 6.2 3s-.5 5.3-3 6.2l-.5.2c-.5.1-1.1.2-1.6.2zm-365.3-12.3c-.6 0-1.3-.1-1.9-.4l-.6-.2c-2.5-1.1-3.6-3.9-2.5-6.4s3.9-3.6 6.4-2.5l.5.2c2.5 1 3.6 3.9 2.6 6.4-.9 1.8-2.6 2.9-4.5 2.9zm422.8-11.9c-1.8 0-3.5-1-4.3-2.7-1.2-2.4-.2-5.3 2.2-6.5l.5-.3c2.4-1.2 5.3-.2 6.5 2.2s.2 5.3-2.2 6.5l-.6.3c-.6.4-1.4.5-2.1.5zm-478.6-16.1c-.8 0-1.7-.2-2.4-.7l-.5-.3c-2.3-1.3-3.1-4.3-1.7-6.6 1.3-2.3 4.3-3.1 6.6-1.7l.5.3c2.3 1.3 3.1 4.3 1.8 6.6-1 1.5-2.6 2.4-4.3 2.4zm532.7-14.9c-1.6 0-3.1-.8-4-2.2-1.5-2.2-.9-5.2 1.4-6.7l.5-.3c2.2-1.5 5.2-.9 6.7 1.4 1.5 2.2.9 5.2-1.4 6.7l-.5.3c-.9.5-1.8.8-2.7.8zm-584.6-19.8a4.64 4.64 0 0 1-2.9-1l-.5-.4c-2.1-1.6-2.6-4.6-.9-6.8 1.6-2.1 4.6-2.6 6.8-.9l.5.4c2.1 1.6 2.6 4.6.9 6.8-1 1.3-2.4 1.9-3.9 1.9zm634.4-17.7c-1.4 0-2.7-.6-3.7-1.7-1.7-2-1.5-5.1.5-6.8l.5-.4c2-1.7 5.1-1.5 6.8.5s1.5 5.1-.5 6.8l-.5.4c-.9.8-2 1.2-3.1 1.2zm-681.6-23c-1.2 0-2.4-.5-3.4-1.4l-.4-.4a4.86 4.86 0 0 1-.1-6.8 4.86 4.86 0 0 1 6.8-.1l.4.4c1.9 1.9 2 4.9.1 6.8-.9 1-2.1 1.5-3.4 1.5zM919 892.5c-1.2 0-2.3-.4-3.3-1.3-2-1.8-2.1-4.9-.3-6.8l.4-.4c1.8-2 4.9-2.1 6.8-.3 2 1.8 2.1 4.9.3 6.8l-.4.4c-.9 1-2.2 1.6-3.5 1.6zm-768.4-26c-1.4 0-2.8-.6-3.8-1.8l-.4-.5c-1.7-2.1-1.3-5.1.7-6.8 2.1-1.7 5.1-1.3 6.8.7l.4.5c1.7 2.1 1.3 5.1-.8 6.8-.7.8-1.8 1.1-2.9 1.1zM958.2 844c-1 0-1.9-.3-2.8-.9-2.2-1.5-2.7-4.6-1.2-6.7l.4-.5a4.72 4.72 0 0 1 6.7-1.1c2.2 1.6 2.7 4.6 1.1 6.7l-.3.5c-.9 1.2-2.4 2-3.9 2zm-843.5-28.5c-1.6 0-3.2-.8-4.1-2.3l-.3-.5c-1.4-2.3-.7-5.3 1.6-6.7s5.3-.7 6.7 1.6l.3.5c1.4 2.3.7 5.3-1.6 6.7-.8.5-1.7.7-2.6.7zM991.2 791c-.8 0-1.6-.2-2.3-.6-2.3-1.3-3.2-4.2-1.9-6.6l.3-.5c1.3-2.4 4.2-3.2 6.6-2 2.4 1.3 3.2 4.2 2 6.6l-.3.6c-1 1.6-2.7 2.5-4.4 2.5zM85.3 760.4c-1.8 0-3.5-1-4.3-2.7l-.2-.5c-1.1-2.4-.1-5.3 2.4-6.4 2.4-1.1 5.3-.1 6.4 2.4l.2.3c1.1 2.4.1 5.4-2.3 6.5-.8.3-1.5.4-2.2.4zm932.2-26c-.6 0-1.2-.1-1.8-.3-2.5-1-3.7-3.8-2.8-6.3l.2-.6c1-2.5 3.8-3.7 6.3-2.8 2.5 1 3.7 3.8 2.8 6.3l-.2.6c-.8 1.9-2.6 3.1-4.5 3.1zM63.1 702.3c-2.1 0-4-1.3-4.6-3.4l-.2-.6c-.8-2.6.6-5.3 3.2-6.1 2.5-.8 5.3.6 6.1 3.2l.2.6c.8 2.6-.6 5.3-3.2 6.1l-1.5.2zm973.4-27.4c-.4 0-.8 0-1.2-.1-2.6-.6-4.2-3.3-3.5-5.9l.1-.5c.7-2.6 3.3-4.2 5.9-3.6 2.6.7 4.2 3.2 3.5 5.8v.1l-.1.5c-.6 2.2-2.6 3.7-4.7 3.7zM48.1 641.7c-2.3 0-4.3-1.6-4.8-4l-.1-.6c-.5-2.6 1.3-5.2 3.9-5.6 2.6-.5 5.2 1.3 5.6 3.9l.1.6c.5 2.6-1.3 5.1-3.9 5.6-.2.1-.5.1-.8.1zm999.9-28.1h-.6c-2.7-.3-4.6-2.7-4.2-5.4l.1-.6c.3-2.7 2.7-4.5 5.4-4.2s4.5 2.7 4.2 5.4l-.1.6c-.3 2.4-2.4 4.2-4.8 4.2zM40.8 579.8c-2.5 0-4.7-2-4.8-4.6v-.6c-.1-2.7 1.9-4.9 4.6-5.1s4.9 1.9 5.1 4.6v.6c.2 2.7-1.9 5-4.5 5.1h-.4zm1011-28.5c-2.7 0-4.8-2.2-4.8-4.8v-.6c0-2.7 2.2-4.8 4.8-4.8 2.7 0 4.8 2.2 4.8 4.8v.6c.1 2.7-2.1 4.8-4.8 4.8zM41.1 517.4h-.3c-2.7-.2-4.7-2.5-4.5-5.1v-.6c.2-2.7 2.5-4.7 5.1-4.5 2.7.2 4.7 2.5 4.5 5.1v.6c-.2 2.5-2.3 4.5-4.8 4.5zm1007.5-24.1c-2.4 0-4.5-1.8-4.8-4.3l-.1-.6c-.3-2.7 1.6-5.1 4.3-5.3 2.7-.3 5.1 1.6 5.3 4.3l.1.6c.3 2.7-1.6 5.1-4.2 5.4-.2-.1-.4-.1-.6-.1zM48.9 455.5c-.3 0-.6 0-.9-.1-2.6-.5-4.3-3-3.8-5.7l.1-.6c.5-2.6 3-4.3 5.7-3.8 2.6.5 4.3 3 3.8 5.7l-.1.6c-.5 2.3-2.5 3.9-4.8 3.9zm988.9-23.6c-2.2 0-4.2-1.5-4.7-3.7l-.1-.6c-.6-2.6 1-5.2 3.6-5.8s5.2 1 5.8 3.6l.1.6c.6 2.6-1 5.2-3.6 5.8-.4.1-.7.1-1.1.1zM64.4 395.1c-.5 0-1-.1-1.5-.2-2.5-.8-3.9-3.6-3.1-6.1l.2-.5c.8-2.5 3.5-4 6.1-3.2 2.5.8 4 3.5 3.2 6.1l-.2.6c-.8 2-2.7 3.3-4.7 3.3zm955-22.8c-1.9 0-3.8-1.2-4.5-3.1l-.2-.6c-.9-2.5.3-5.3 2.8-6.2s5.3.3 6.2 2.8l.2.5c1 2.5-.3 5.3-2.8 6.3-.5.2-1.1.3-1.7.3zM87.2 337c-.7 0-1.4-.1-2-.5-2.4-1.1-3.5-4-2.4-6.4l.3-.6c1.1-2.4 4-3.5 6.4-2.3 2.4 1.1 3.5 4 2.3 6.4l-.2.5c-.8 1.9-2.6 2.9-4.4 2.9zm906.7-21.6a4.85 4.85 0 0 1-4.3-2.6l-.3-.5c-1.2-2.4-.3-5.3 2-6.5 2.4-1.2 5.3-.3 6.5 2l.3.5c1.3 2.4.4 5.3-2 6.5a4.56 4.56 0 0 1-2.2.6zm-876.8-33.2c-.9 0-1.8-.2-2.6-.7-2.3-1.4-2.9-4.4-1.5-6.7l.3-.5c1.4-2.3 4.4-2.9 6.7-1.5s2.9 4.4 1.5 6.7l-.3.5c-1 1.4-2.5 2.2-4.1 2.2zm844.4-20.1c-1.5 0-3-.7-4-2.1l-.4-.5c-1.5-2.2-1-5.2 1.2-6.7s5.2-1 6.7 1.2l.3.5c1.5 2.2 1 5.2-1.2 6.7-.7.6-1.7.9-2.6.9zm-808.1-30.6c-1.1 0-2.2-.4-3.1-1.1-2.1-1.7-2.4-4.7-.7-6.8l.4-.4c1.7-2.1 4.7-2.4 6.8-.7s2.4 4.7.7 6.8l-.4.5c-.9 1.1-2.3 1.7-3.7 1.7zm769.4-18.3c-1.3 0-2.6-.5-3.6-1.6l-.4-.5c-1.8-2-1.6-5 .4-6.8s5-1.6 6.8.4l.4.5c1.8 2 1.6 5-.4 6.8-.9.8-2.1 1.2-3.2 1.2zm-727.1-27.6c-1.3 0-2.5-.5-3.5-1.5-1.9-1.9-1.8-5 .1-6.8l.4-.4c1.9-1.8 5-1.8 6.8.1 1.9 1.9 1.8 5-.1 6.8l-.4.4c-.9 1-2.1 1.4-3.3 1.4zm682.6-16.2c-1.1 0-2.3-.4-3.2-1.2l-.4-.4c-2-1.8-2.2-4.8-.5-6.8 1.8-2 4.8-2.2 6.8-.5l.5.4c2 1.8 2.2 4.8.5 6.8-1 1.1-2.3 1.7-3.7 1.7zm-635-24.1c-1.5 0-2.9-.7-3.9-1.9a4.83 4.83 0 0 1 1-6.8l.5-.4a4.83 4.83 0 0 1 6.8 1c1.6 2.2 1.2 5.2-1 6.8l-.5.4a5.21 5.21 0 0 1-2.9.9zm585.6-14c-.9 0-1.9-.3-2.7-.8l-.5-.3c-2.2-1.5-2.8-4.5-1.3-6.7s4.5-2.8 6.7-1.3l.5.3c2.2 1.5 2.8 4.5 1.3 6.7-.9 1.4-2.4 2.1-4 2.1zm-533.5-20.2c-1.7 0-3.3-.9-4.2-2.5-1.3-2.3-.5-5.3 1.8-6.6l.5-.3c2.3-1.3 5.3-.5 6.6 1.8s.5 5.3-1.8 6.6l-.6.3c-.6.5-1.5.7-2.3.7zm479.7-11.5c-.7 0-1.4-.2-2.1-.5l-.5-.3c-2.4-1.2-3.3-4.1-2.1-6.5s4.1-3.3 6.5-2.1l.4.2c2.4 1.2 3.4 4.2 2.2 6.5-1 1.7-2.7 2.7-4.4 2.7zm-423.7-16a4.86 4.86 0 0 1-4.5-3c-1-2.5.2-5.3 2.6-6.3l.5-.3c2.5-1 5.3.1 6.3 2.6s-.1 5.3-2.6 6.3l-.6.2c-.5.4-1.1.5-1.7.5zm366.5-8.8a4.53 4.53 0 0 1-1.6-.3l-.6-.2c-2.5-.9-3.8-3.7-2.9-6.2s3.7-3.8 6.2-2.9l.6.2c2.5.9 3.8 3.7 2.9 6.2-.8 2-2.6 3.2-4.6 3.2zM410.3 63.2c-2.1 0-4.1-1.4-4.7-3.5-.7-2.6.8-5.2 3.4-6l.6-.2a4.77 4.77 0 0 1 5.9 3.4 4.77 4.77 0 0 1-3.4 5.9l-.5.2c-.4.1-.9.2-1.3.2zM658 57.3c-.3 0-.7 0-1.1-.1l-.6-.1c-2.6-.6-4.3-3.2-3.7-5.8s3.2-4.3 5.8-3.7l.6.1c2.6.6 4.3 3.2 3.7 5.8-.5 2.2-2.5 3.8-4.7 3.8zm-186.7-7c-2.4 0-4.4-1.7-4.8-4.1-.4-2.6 1.4-5.1 4.1-5.5l.6-.1c2.7-.4 5.1 1.4 5.5 4.1.4 2.6-1.4 5.1-4.1 5.5l-.6.1h-.7zm125.1-3h-.5l-.6-.1c-2.7-.3-4.6-2.6-4.3-5.3s2.6-4.6 5.3-4.3l.6.1c2.7.3 4.6 2.6 4.4 5.3-.3 2.4-2.4 4.3-4.9 4.3zM533.5 45c-2.6 0-4.8-2.1-4.8-4.7-.1-2.7 2.1-4.9 4.7-5h.6c2.6-.1 4.9 2.1 5 4.7.1 2.7-2.1 4.9-4.7 5h-.6-.2z"/><use xlink:href="#B"/><use xlink:href="#C"/><path d="M668.8 950.9H423l-112.7-92v-92.1l235.6-220.9 235.6 220.9v92.1z" fill="#ff64ff"/><g opacity=".25"><path d="M310.3 766.8l235.6-220.9L423 766.8z"/></g><g class="T"><path d="M310.3 858.9H423v92z"/></g><g class="T"><path d="M310.3 766.8h51.3l-51.3 92.1z"/></g><g opacity=".1"><path d="M423 766.8l122.9-220.9v220.9z"/></g><g class="S Q"><path d="M668.8 766.8L545.9 545.9l235.6 220.9z"/></g><g class="R Q"><path d="M668.8 950.9v-92h112.7z"/></g><g class="S Q"><path d="M545.9 858.9h122.9v92H545.9z"/></g><g class="R Q"><path d="M781.5 858.9l-51.3-92.1h51.3z"/></g><g class="R Q"><path d="M668.8 858.9l-61.5-92.1h122.9z"/></g><g class="R Q"><path d="M545.9 858.9l-61.4-92.1h122.8z"/></g><g class="S Q"><path d="M423 858.9l-61.4-92.1h122.9z"/></g><path d="M308.8 857.4h474.1v2.9H308.8zm0-92h474.1v2.9H308.8z"/><path d="M544.4 544.4h2.9v223.8h-2.9z"/><path d="M421.051 767.397l124.245-223.482 2.535 1.409-124.245 223.482z"/><path d="M543.893 545.319l2.534-1.409 124.27 223.456-2.534 1.409zM667.3 857.4h2.9v95h-2.9zm-122.9 0h2.9v95h-2.9zm-122.8 0h2.9v95h-2.9z"/><path d="M545.5 860.9l-61-91.5-61.1 91.5-2.4-1.6 62.3-93.3h2.4l62.2 93.3z"/><path d="M422.6 860.9l-60.9-91.3-50.8 91.3-2.6-1.5 52-93.3 2.5-.1 62.3 93.3zm245.8 0l-61.1-91.5-61 91.5-2.4-1.6 62.2-93.3h2.4l62.3 93.3z"/><path d="M669.2 860.9l-2.5-1.6L729 766l2.5.1 52 93.3-2.6 1.5-50.8-91.3z"/><use xlink:href="#C"/><path d="M423 140.9h245.8l112.7 92V325L545.9 545.9 310.3 325v-92.1z" fill="#ff64ff"/><g opacity=".25"><path d="M781.5 325L545.9 545.9 668.8 325z"/></g><g class="T"><path d="M781.5 232.9H668.8v-92z"/></g><g class="T"><path d="M781.5 325h-51.3l51.3-92.1z"/></g><g opacity=".1"><path d="M668.8 325L545.9 545.9V325z"/></g><g class="S Q"><path d="M423 325l122.9 220.9L310.3 325z"/></g><g class="R Q"><path d="M423 140.9v92H310.3z"/></g><g class="S Q"><path d="M423 140.9h122.9v92H423z"/></g><g class="R Q"><path d="M310.3 232.9l51.3 92.1h-51.3z"/></g><g class="R Q"><path d="M423 232.9l61.5 92.1H361.6z"/></g><g class="R Q"><path d="M545.9 232.9l61.4 92.1H484.5z"/></g><g class="S Q"><path d="M668.8 232.9l61.4 92.1H607.3z"/></g><path d="M308.8 231.5h474.1v2.9H308.8zm0 92h474.1v2.9H308.8z"/><path d="M544.4 323.5h2.9v223.8h-2.9z"/><path d="M543.945 546.462L668.19 322.98l2.535 1.409L546.48 547.871z"/><path d="M421.019 324.438l2.534-1.409 124.27 223.456-2.534 1.409zM421.6 139.4h2.9v95h-2.9zm122.8 0h2.9v95h-2.9zm122.9 0h2.9v95h-2.9z"/><path d="M608.5 325.8h-2.4l-62.2-93.3 2.4-1.6 61 91.5 61.1-91.5 2.4 1.6z"/><path d="M729 325.8l-62.3-93.3 2.5-1.6 60.9 91.3 50.8-91.3 2.6 1.5-52 93.3zm-243.3 0h-2.4L421 232.5l2.4-1.6 61.1 91.5 61-91.5 2.4 1.6z"/><path d="M362.8 325.8l-2.5-.1-52-93.3 2.6-1.5 50.8 91.3 60.9-91.3 2.5 1.6z"/><use xlink:href="#B"/><defs ><path id="B" d="M546.9 547h-2L309.3 326l-.5-1.1v-92l.5-1.1 112.7-92 .9-.3h245.7l.9.3 112.7 92 .5 1.1v92l-.5 1.1-235.3 221zM311.8 324.4l234.1 219.5L780 324.4v-90.7l-111.8-91.3H423.6l-111.8 91.3v90.7z"/><path id="C" d="M668.8 952.4H423l-.9-.3-112.7-92-.5-1.1v-92l.5-1.1L545 545h2l235.6 220.9.5 1.1v92l-.5 1.1-112.7 92-1.1.3zm-245.2-2.9h244.7L780 858.2v-90.7L545.9 547.9 311.8 767.5v90.7l111.8 91.3z"/></defs></svg>