<svg xmlns="http://www.w3.org/2000/svg" viewBox="0 0 850 850"><style>.F{fill:#00ffaf}.G{fill:#00b9b9}.H{fill:#00c6a1}.I{fill:#007d7d}</style><circle cx="425" cy="425" r="425" class="F"/><path d="M427 641v-2l56-59h2l21 45v2z"/><path d="m483 581 21 45-77 14zm0-2h-1l-55 60-1 2 2 1h1l77-14 1-1v-2l-22-45z"/><path d="m612 635-53-14-54 6-1-1q-1-1 1-1l58-56h1l39-16 1 1 32 63v1z"/><path d="m602 554 33 63-23 16-54-13-54 6 59-56zm0-2-39 16-59 56-1 2 2 2 54-6 53 13h2l23-17v-2l-32-63zm-175 89-81-14-1-1v-1l22-44-6-14 1-1h1l65 73z"/><path d="m362 567 65 73-81-14 22-45zm0-2-1 3 5 13-21 44v2l2 1 81 14 2-1v-2l-65-74z"/><path d="m239 635-23-16v-1l32-63 1-1h1l39 16 59 56v1l-1 1-54-6z"/><path d="m248 554 39 16 59 56-54-6-53 13-23-16zm0-2-1 1-33 63 1 3 23 16h1l54-13 53 6 2-1v-3l-59-55-1-1-39-15z"/><path d="m482 582 21 43-74 14z" class="G"/><path d="m482 584 20 41-70 13zm1-3-56 59 77-14z"/><path d="m564 572 33 33-38 14z" class="H"/><path d="m564 574 31 31-35 13zm-1-4-5 50 40-14z"/><path d="m561 620 37-13 12 25z" class="I"/><path d="m598 608 11 23-46-11zm0-2-40 14 54 13z"/><path d="m603 559 30 58-21 15z" class="I"/><path d="m605 563 28 54-20 14zm-3-9 10 79 23-16z"/><path d="m599 606 3-44 8 67z" class="H"/><path d="m603 570 6 54-9-19zm0-16-4 52 14 27z"/><path d="m580 586 21-29-3 47z" class="G"/><path d="m600 560-3 42-17-16zm2-6-23 32 19 20z"/><path d="m579 588 18 17-16 6z" class="F"/><path d="m580 590 15 15-14 5zm-2-4 2 26 18-6z"/><path d="m561 620 19-7 9 14z" class="G"/><path d="m579 614 8 12-24-6zm0-2-22 8 32 8z"/><path d="m564 570 36-14-22 29z" class="F"/><path d="m598 558-20 25-12-12zm4-4-39 16 16 16z"/><path d="m562 572-5 47-51 6z" class="F"/><path d="m561 574-4 45-48 5zm2-4-59 56 54-6z"/><path d="m347 625 21-42 18 49z" class="G"/><path d="m368 585 17 46-37-6zm-6-18 6 14-22 45 41 7-19-52z"/><path d="m388 632-19-52-4-9 60 68z" class="F"/><path d="m367 574 56 64-34-6-20-52zm-5-7 6 14 19 52 40 7z"/><path d="m254 606 33-34 5 47z" class="H"/><path d="m286 574 5 44-36-13zm1-4-35 36 40 14z"/><path d="m253 607 37 13-50 12z" class="I"/><path d="m253 608 34 12-45 11zm-1-2-13 27 53-13z"/><path d="m217 617 30-58-9 73z" class="I"/><path d="m246 563-9 68-19-15zm2-9-32 63 23 16z"/><path d="m248 562 3 44-11 23z" class="H"/><path d="m248 570 3 35-10 19zm0-16-9 79 13-27z"/><path d="m249 557 22 29-18 18z" class="G"/><path d="m250 560 20 26-17 16zm-2-6 4 52 20-20z"/><path d="m254 606 17-18-1 23z" class="F"/><path d="m270 590-1 20-14-5zm2-4-20 20 18 6z"/><path d="m271 613 19 7-28 7z" class="G"/><path d="m271 614 16 6-23 6zm-1-2-10 16 32-8z"/><path d="m251 556 35 14-14 15z" class="F"/><path d="m253 558 32 13-13 12zm-5-4 24 32 15-16z"/><path d="m293 619-5-47 56 53z" class="F"/><path d="m289 574 53 50-48-5zm-2-4 5 50 54 6zm132-124-1-1 6-59 3-32 23-105 59-39 1-1v1h1l7 73-46 126-1 1-51 36z"/><path d="m510 210 7 73-46 126-52 36 6-59 3-32 23-104zm0-2-1 1-59 39-1 1-23 104v1l-3 32-6 59 1 2h1l2-1 51-35 1-1 46-127v-1l-7-72z"/><path d="m446 382 22-99 34-28 14 28-46 125z" class="G"/><path d="m501 256 14 27-45 123-23-24 22-99zm1-2-34 28-23 100 26 27 46-126z"/><path d="m428 354 18-82 14-3 7 13-22 99-19 4z" class="F"/><path d="m460 270 6 12-22 99-17 3 2-30 18-81zm1-1-15 2-18 83-3 32 20-4 23-100z"/><path d="m462 269 47-56-8 40-33 28z" class="F"/><path d="m508 216-8 37-32 27-6-11zm3-6-49 59 7 13 34-28z"/><path d="m503 254 7-38 6 63z" class="I"/><path d="m510 221 5 54-11-22zm0-11-8 44 15 29z"/><path d="m451 250 55-36-46 54-13 2z" class="H"/><path d="m502 218-42 49-12 2 4-18zm8-8-59 39-5 22 15-2z"/><path d="m446 383 23 25-32 1z" class="F"/><path d="m446 385 21 22-29 2zm-1-3-10 28 36-1z"/><path d="m436 411 32-1-47 32z" class="G"/><path d="m466 411-43 29 14-28zm5-2-35 1-17 35z"/><path d="m426 387 18-4-9 27-14 30z" class="H"/><path d="m443 384-9 26-12 26 5-49zm2-2-20 4-6 59 16-35z"/><path d="m441 446-52-35v-1l-46-126v-1l7-72v-1h1l60 40 23 104 3 33 5 58z"/><path d="m351 210 59 40 23 104 3 32 5 59-51-36-46-126zm0-2-1 1-1 1-7 72v1l46 127 1 1 51 35 1 1 1-1 1-2-5-58-3-32v-1l-23-104-1-1z"/><path d="m345 283 14-28 34 28 22 99-25 25z" class="G"/><path d="m359 256 33 27 22 99-23 24-46-123zm0-2-15 29 46 126 26-27-23-100z"/><path d="m416 381-22-99 7-12 13 2 18 82 3 31z" class="F"/><path d="m401 270 13 2 18 82 2 30-17-3-22-99zm-1-1-7 13 23 100 20 4-3-32-18-83z"/><path d="m360 253-8-40 47 56-6 12z" class="F"/><path d="m353 216 45 53-5 11-33-27zm-2-6 8 44 34 28 7-13z"/><path d="m351 216 7 38-13 25z" class="I"/><path d="m351 221 6 32-11 22zm0-11-7 73 15-29z"/><path d="m401 268-46-54 54 36 5 20z" class="H"/><path d="m359 218 50 32 4 19-12-2zm-8-8 49 59 15 2-5-22z"/><path d="m392 408 23-25 9 26z" class="F"/><path d="m415 385 8 24-29-1zm1-3-26 27 35 1z"/><path d="m393 410 32 1 15 31z" class="G"/><path d="m395 411 29 1 14 28zm-5-2 51 36-16-35z"/><path d="m426 410-9-27 18 4 5 53z" class="H"/><path d="m418 384 16 3 5 49-12-26zm-2-2 9 28 16 35-5-59zM283 514l-50-37-1-1-43-127v-1l9-72h2l58 40v1l21 105 1 32z"/><path d="m198 277 58 40 21 105 1 32 5 59-51-37-43-128zm0-2-1 1-9 72v1l43 128 1 1 50 37h3l1-2-5-59-1-32-20-105-1-2-59-40z"/><path d="m190 349 15-28 33 29 20 100-25 25z" class="G"/><path d="m206 322 31 28 20 99-24 24-42-124zm-1-2-16 29 43 127 26-26-19-101z"/><path d="m259 449-20-99 7-13 14 3 16 82 2 31z" class="F"/><path d="m247 338 12 2 16 82 2 30-17-4-20-98zm-1-2-7 13 19 101 21 4-2-32-16-83z"/><path d="m206 320-7-41 46 57-6 12z" class="F"/><path d="m201 282 43 54-6 11-31-28zm-2-5 7 43 34 29 7-13z"/><path d="m198 282 6 38-13 25z" class="I"/><path d="m198 288 6 32-12 21zm0-11-9 72 16-29z"/><path d="m246 335-44-55 54 38 4 20z" class="H"/><path d="m206 284 49 34 4 19-12-2zm-8-7 48 59 15 3-4-22z"/><path d="m234 475 24-24 8 26z" class="F"/><path d="m258 453 7 24-29-2zm1-3-27 26 36 2z"/><path d="m235 477 32 2 14 32z" class="G"/><path d="m238 478 28 2 13 28zm-6-2 51 37-16-35z"/><path d="m268 478-8-27 18 4 4 54z" class="H"/><path d="m261 452 16 3 4 49-12-26zm-3-2 9 28 16 35-5-59zm312 64 4-59 2-32 20-105h1l58-41h1l1 1 9 72-43 128h-1z"/><path d="m655 277 9 72-43 127-51 37 4-59 2-32 20-105zm0-2h-1l-59 40-1 2-20 105-2 32-4 59 1 2h2l51-37 1-1 43-128v-1l-9-72z"/><path d="m595 450 20-100 32-29 16 28-43 126z" class="G"/><path d="m647 322 15 27-42 124-24-24 20-99zm1-2-34 29-20 101 27 26 43-127z"/><path d="m577 422 16-82 13-3 7 13-19 99-19 4z" class="F"/><path d="m606 338 7 12-20 98-17 4 2-30 16-82zm1-2-15 3-16 83-2 32 20-4 20-101z"/><path d="m608 336 46-57-7 41-33 28z" class="F"/><path d="m652 282-6 37-31 28-6-11zm3-5-48 59 7 13 34-29z"/><path d="m649 320 6-38 7 63z" class="I"/><path d="m655 288 6 53-12-21zm0-11-7 43 16 29z"/><path d="m597 318 54-38-44 55-14 3z" class="H"/><path d="m647 284-41 51-12 2 4-19zm8-7-59 40-4 22 15-3z"/><path d="m595 451 24 24-33 2z" class="F"/><path d="m595 453 22 22-29 1zm-1-3-9 28 36-2z"/><path d="m586 479 32-2-46 34z" class="G"/><path d="m616 478-42 30 13-28zm5-2-36 2-15 35z"/><path d="m575 455 18-4-8 27-14 31z" class="H"/><path d="m592 452-8 26-11 26 3-49zm2-2-20 4-4 59 15-35zm-105 50-1-1-1-71-2-56v-24l-11-18v-1l27-50h1l79-45h1l1 1 15 82-12 62h-1l-22 1-73 119z"/><path d="m581 235 15 82-12 61-22 1-74 120-1-71-2-56v-24l-11-18 27-50zm0-2-1 1-80 44-1 1-27 50v2l11 18v23l2 56 1 71 2 2 2-1 73-119h21l2-2 12-61v-1l-15-82z"/><path d="m488 428 9-34 36-43-44 143z" class="G"/><path d="m531 355-41 134-2-61 9-34zm4-7-39 45-9 35 2 71z"/><path d="m486 372 29-60 19 36-38 44z" class="F"/><path d="m515 314 18 34-37 43-9-19zm0-4-30 62 11 22 39-46z"/><path d="m516 310 45-26 18 41-44 22z" class="G"/><path d="m561 285 17 39-42 22-19-35zm1-2-47 27 20 38 45-23z"/><path d="m536 348 43-22-18 53-70 114z" class="I"/><path d="m577 328-17 51-66 108 42-138zm3-3-45 23-46 151 73-120z"/><path d="m582 243 13 74-14 7z" class="H"/><path d="m582 251 12 65-12 6zm-1-16-1 90 16-8z"/><path d="m563 283 17-44-1 82z" class="F"/><path d="M579 243v75l-16-35zm2-8-19 48 18 42z"/><path d="m578 239-17 43-42 25z" class="F"/><path d="m576 243-16 39-38 22zm5-8-66 75 47-27z"/><path d="m581 325 14-7-12 60h-20z" class="G"/><path d="m594 320-12 57h-18l17-51zm2-3-16 8-18 54 22-1z"/><path d="m533 351-7 22-26 17z" class="H"/><path d="m531 355-5 18-22 14zm4-7-39 45 31-19z"/><path d="m486 348-11-18 26-49 13 29-28 59z" class="I"/><path d="m501 283 12 27-27 56v-19l-10-17zm0-3-27 50 11 18v24l30-62z"/><path d="m502 280 75-42-62 71z" class="H"/><path d="m574 241-59 66-12-27zm7-6-80 45 14 30z"/><path d="m486 376 9 17-8 30z" class="I"/><path d="m487 379 7 15-6 23zm-2-7 2 56 9-35zM364 500l-73-119h-21l-1-1-13-62 16-82v-1h1v1l80 44 28 50v1l-11 18v24l-2 56-2 71z"/><path d="m272 235 79 45 28 50-11 18v24l-2 56-2 71-73-120-22-1-12-61zm0-2-1 2-15 82v1l12 61 2 2h21l73 119 1 1h1l1-2 2-71 2-56v-23l11-18v-2l-28-50v-1l-80-44z"/><path d="m320 351 36 43 9 34-1 66z" class="G"/><path d="m321 355 34 39 9 34-1 61zm-3-7 46 151 2-71-9-35z"/><path d="m319 348 19-36 29 60-10 20z" class="F"/><path d="m338 314 28 58-9 19-37-43zm0-4-20 38 39 45 11-21z"/><path d="m274 325 17-41 46 26-20 37z" class="G"/><path d="m292 285 44 26-19 35-42-22zm-1-2-18 42 45 23 20-38z"/><path d="m292 379-18-53 43 22 45 145z" class="I"/><path d="m275 328 41 21 43 138-67-108zm-2-3 18 54 73 120-46-151z"/><path d="m257 317 14-74 1 81z" class="H"/><path d="m270 251 1 71-13-6zm2-16-15 82 16 8z"/><path d="m273 239 17 44-17 38z" class="F"/><path d="m274 243 15 40-15 34zm-2-8 1 90 18-42z"/><path d="m292 282-18-43 60 68z" class="F"/><path d="m277 243 53 61-38-22zm-5-8 19 48 47 27z"/><path d="m269 378-11-60 14 7 18 53z" class="G"/><path d="m259 320 12 6 18 51h-19zm-3-3 13 61 22 1-18-54z"/><path d="m326 374-7-23 34 39z" class="H"/><path d="m321 355 28 32-22-14zm-3-7 8 26 31 19z"/><path d="m339 310 13-29 26 49-11 18v21z" class="I"/><path d="m352 283 25 47-10 17h-1v18l-26-55zm-1-3-13 30 30 62v-24l11-18z"/><path d="m275 238 75 42-12 29z" class="H"/><path d="m279 241 71 39-13 27zm-7-6 66 75 14-30z"/><path d="m358 394 9-18-2 47z" class="I"/><path d="m366 379-1 38-6-23zm2-7-11 21 9 35zm136 255-21-45 2-30v-27l1-26h1l73-119 1-1 96-12 1 1 14 102-166 157z"/><path d="m656 367 14 102-166 157-21-45 2-30v-27l1-25 74-120zm0-2-97 12-1 1-74 120v1l-1 25-1 27-2 30 1 1 21 45 2 1 2-1 165-157 1-2-14-102z"/><path d="m483 580 2-29 27-12-5 49z" class="I"/><path d="m511 541-5 46-22-7 2-28zm2-2-28 13-2 30 25 8z"/><path d="M509 590h22l-2 11-15 4z" class="H"/><path d="m530 591-2 9-14 4-4-13zm2-2h-24l5 17 17-4z"/><path d="m484 582 23 8 5 16-8 18z" class="F"/><path d="m486 583 20 7 5 16-7 16zm-3-2 21 45 9-20-5-17z"/><path d="m533 589 103-113 32-6-137 129z" class="I"/><path d="M665 471 532 597l2-7 102-113zm5-2-35 7-103 113-2 13z"/><path d="m509 588 5-50 46-99h65l9 37-102 112z" class="G"/><path d="m624 439 9 36-102 112h-22l5-49 46-99zm1-1h-66l-46 100-5 51h24l103-113z"/><path d="m486 524 73-113v27l-46 99-28 13z" class="F"/><path d="M558 414v24l-46 99-26 11 1-23zm1-6-74 116v27l28-13 46-100z"/><path d="M560 437v-28l94-41-29 69z" class="F"/><path d="m653 370-29 66h-63v-27zm3-3-97 41v30h66z"/><path d="m560 380 91-12-91 39z" class="H"/><path d="m645 370-84 36v-25zm11-3-97 12v29z"/><path d="m626 438 30-68 13 98-33 7z" class="H"/><path d="m655 373 13 95-32 6-9-36zm1-6-31 71 10 38 35-7z"/><path d="m487 499 72-117v26l-73 113z" class="I"/><path d="M558 385v23l-71 110 1-19zm1-6-73 120-1 25 74-116z"/><path d="m514 607 13-4-20 20z" class="G"/><path d="m524 605-15 14 5-12zm6-3-17 4-9 20zm-184 25L180 470l-1-1 14-102 1-1h1l96 12 1 1 73 119v1l1 25 1 27 2 30-22 45z"/><path d="m195 367 96 12 73 120 1 25 1 27 2 30-22 45-165-157zm0-2q-2 0-3 2l-14 102 1 1 166 157 1 1 2-1 22-45v-1l-2-30-1-27-1-25v-1l-73-120-2-1z"/><path d="m338 539 27 12 2 29-24 8z" class="I"/><path d="m339 541 25 11 2 28-22 7zm-2-3 6 51 25-8-2-30z"/><path d="m321 601-2-11h23l-5 15z" class="H"/><path d="m341 591-5 13-14-4-2-10zm2-2h-25l3 13 16 4z"/><path d="m338 606 5-16 23-8-20 42z" class="F"/><path d="m365 583-19 39-7-16 5-16zm3-2-25 8-6 17 9 20z"/><path d="m183 470 32 6 103 113 1 10z" class="I"/><path d="m185 471 29 6 103 113 1 7zm-5-2 141 133-3-13-103-113z"/><path d="M319 588 216 476l10-37h64l47 99 5 50z" class="G"/><path d="m290 439 46 99 5 49h-22L217 476l9-36zm1-1h-66l-10 38 103 113h25l-6-51z"/><path d="m338 537-46-99v-27l73 113v26z" class="F"/><path d="m293 414 71 111v23l-26-11-45-100zm-2-5v30l46 100 29 13-1-27z"/><path d="m226 437-30-69 94 41v28z" class="F"/><path d="m198 370 91 39v27h-63zm-3-3 31 71h66v-30z"/><path d="m200 368 90 12v27z" class="H"/><path d="m205 370 84 11v25zm-10-3 96 41v-29z"/><path d="m181 468 14-98 29 68-9 37z" class="H"/><path d="m195 373 29 65-10 36-32-6zm0-6-15 102 35 7 10-38z"/><path d="M292 408v-26l71 117 1 22z" class="I"/><path d="m293 385 70 114 1 19-71-110zm-2-6v29l74 116-1-25z"/><path d="m323 603 14 4 7 16z" class="G"/><path d="m326 605 10 2 6 12zm-5-3 25 24-9-20zm106 39-64-74h-1l3-32-7-191v-1l73-85 1-1 1 1 53 89 1 1 4 190-7 43z"/><path d="m431 258 54 90 5 190-7 43-56 59-64-73 3-32-8-191zm0-2-2 1-73 86v1l7 191-3 31 1 2 65 73 1 1 2-1 55-59v-1l7-43-4-190-1-1-53-90z"/><path d="m403 359 28-98 30 101-29 21z" class="G"/><path d="m431 264 29 97-28 21-28-24zm0-6-29 101 30 25 30-22z"/><path d="m378 384 24-24 29 24-29 43z" class="I"/><path d="m402 361 28 23-28 41-23-41zm0-2-25 25 25 44 30-44z"/><path d="m359 345 42 14-24 23z" class="H"/><path d="m361 347 38 12-21 22zm-3-3 19 40 25-25z"/><path d="m366 534-7-186 17 36 14 161z" class="G"/><path d="m360 351 16 33 13 160-22-10zm-2-7 8 191 25 11-14-162z"/><path d="m410 546-7-118 29-44 29-21-3 189z" class="G"/><path d="m461 365-4 186-46-6-7-117 29-43zm1-3-30 22-30 44 7 118 49 7z"/><path d="m463 362 21-13 5 188-30 14z" class="I"/><path d="m483 351 5 186-28 13 4-187zm2-3-23 14-4 191 31-15z"/><path d="m434 264 50 84-21 13z" class="H"/><path d="m436 270 47 77-20 12zm-5-12 31 104 23-14z"/><path d="m359 344 70-82-27 96z" class="F"/><path d="m428 265-27 92-41-14zm3-7-73 86 44 15z"/><path d="m391 546-13-159 23 41 7 118z" class="F"/><path d="m379 391 22 38 7 116h-16zm-3-7 13 163h19l-7-119z"/><path d="m488 542-6 38-50 54z" class="I"/><path d="m487 546-6 34-45 48zm2-8-62 102 56-59z"/><path d="m442 580 17-27 28-13-58 95z" class="H"/><path d="m485 542-54 89 12-51 16-26zm4-4-31 15-17 26-14 61z"/><path d="m410 547 47 6-16 25-24 3z" class="I"/><path d="m411 548 45 6-16 24-23 2zm-2-2 7 36 25-3 17-26z"/><path d="m417 582 23-2-13 56z" class="F"/><path d="m439 581-12 51-9-49zm2-2-25 3 11 58z"/><path d="M392 547h17l6 35 10 50z" class="I"/><path d="m408 548 7 34 8 42-30-76zm1-2h-19l37 94-11-59z"/><path d="m366 536 23 11-26 18z" class="F"/><path d="m367 537 20 10-23 17zm-2-2-3 32 28-21z"/><path d="m364 567 26-19 35 88z" class="G"/><path d="m390 549 33 83-58-65zm1-3-28 21 64 73zm-51-393 1-6-2-8q-2-3-9-3h-16v32h8v-10h4l2 1 1 1 4 8h8l-4-8-1-2-1-1zm-8-2-4 1h-6v-10h6q5 1 5 5c0 5 0 3-1 4m22-15-12 32h8l3-7h11l3 7h8l-12-32zm0 19 5-11 4 11zm35-19-12 32h8l3-7h11l2 7h9l-12-32zm0 19 4-11 4 11zm45 1-13-20h-7v32h8v-19l14 19h7v-32h-9zm42-20h-9l-11 13v-13h-8v32h8v-9l3-4 9 13h9l-13-19zm5 32h23v-6h-15v-6h13v-7h-13v-6h15v-7h-23zm52-28q-4-4-11-4h-14v32h14q8 0 11-3 5-5 4-12 0-9-4-13m-5 19q-1 2-3 2l-4 1h-5v-19h5l5 1q2 0 2 3l1 6zM337 687h-16v32h8v-9h7l7-1 4-4 1-6q0-5-3-8-4-4-8-4m1 16-3 1h-6v-10h6l4 1 1 4zm36 10h-15v-26h-8v33h23zm13-1h11l2 8h9l-12-33h-9l-12 32h8zm5-17 4 11h-8zm30-8-12 32h9l2-7h11l3 8h8l-12-33zm0 19 5-11 4 11zm41-19-7 14-7-14h-8l11 21v11h8v-11l12-21zm13 0v32h24v-6h-16v-6h14v-7h-14v-6h16v-7zm50 22-2-1 5-4q3-1 2-6-1-6-3-8-3-3-9-3h-16 1v33h8v-11h3l2 1 1 1 4 8h8l-3-8zm-5-7-4 1h-6v-9h7q4 0 4 4c0 5 0 3-1 4m-140 44-6-2-4-1-2-1-1-2 2-2 4-1 9 2v-7l-5-1-5-1q-6 0-10 3-3 2-3 7c0 5 0 3 1 4l3 3 5 2 5 2 2 1v2l-1 2-5 1-5-1-4-1v7l4 1 6 1q7 0 10-3 4-4 4-7l-1-4zm31-11v-4h-25v6h14l-15 22v4h26v-6h-15zm23 15-14-19h-7v32h8v-19l14 19h7v-32h-8zm42-19q-6 0-10 3c-3 3-3 1-3 8s4 10 11 10h4l4-2v2l-2 4-6 1-8-1v6l4 1 5 1 7-2 5-5 2-7v-7q0-6-3-9-3-4-10-3m6 14-3 1h-3l-4-1q-2-1-2-4 0-2 2-3 1-2 4-2 4 0 4 2l2 4z"/></svg>