<svg xmlns="http://www.w3.org/2000/svg" viewBox="0 0 1134 1134"><style>.G{fill:#d1fafd}.H{fill:#c0e7fd}.I{fill:#68c1ff}.J{fill:#158ae1}</style><circle cx="567" cy="567" r="567" fill="#0ff"/><path d="m570 855-2-1 1-2 73-79h2l1 1 29 60v1l-1 1z"/><path d="m643 774 29 60-103 19zm0-2-2 1-74 78v4l2 1h1l103-19 2-1v-3l-29-60z"/><path d="m816 846-71-18-71 8-2-1q-1-1 1-2l78-74 52-21h1l1 1 43 83v2z"/><path d="m803 739 43 84-30 22-72-18-72 7 79-74zm0-3h-1l-52 21-1 1-79 74v3l2 2 72-8 71 18 2-1 31-22v-3l-43-84zM570 855l-108-19-1-1v-1l29-60-7-18v-1l1-1 1 1 87 97v2z"/><path d="m483 756 86 97-107-19 28-60zm0-3h-1q-3 1-2 4l7 17-28 59v3l2 1 108 19q2 0 3-2 1-1-1-3l-86-97z"/><path d="m318 846-31-22v-2l43-83 1-1h1l52 21 78 74 1 2h-2l-71-7z"/><path d="m331 739 52 21 79 74-72-7-72 18-30-22zm0-3q-2 0-2 2l-43 83v4l31 22h2l71-17 71 7h1l2-1v-4l-79-74h-1l-52-21z"/><path d="m643 776 28 58-99 18z" class="H"/><path d="m643 778 26 55-94 17zm0-4-74 79 103-19z"/><path d="m752 763 44 44-51 18z" class="I"/><path d="m752 765 42 42-48 17zm-1-5-7 67 54-19z"/><path d="m748 827 49-18 17 34z" class="J"/><path d="m797 810 15 32-61-16zm1-2-54 19 72 17z"/><path d="m805 745 40 77-29 21z" class="J"/><path d="m806 750 37 72-26 19zm-3-11 13 106 30-22z"/><path d="m799 808 4-58 11 89z" class="I"/><path d="m803 761 9 72-12-26zm0-22-5 69 18 37z"/><path d="m773 781 29-38-5 63z" class="H"/><path d="m800 746-4 57-22-22zm3-7-32 42 27 27z"/><path d="m773 784 23 23-22 8z" class="G"/><path d="m774 787 20 20-19 6zm-3-5 2 35 25-8z"/><path d="m748 827 25-9 12 18z" class="H"/><path d="m773 819 10 15-32-8zm0-3-29 11 43 11z"/><path d="m752 761 48-19-29 38z" class="G"/><path d="m797 744-26 34-17-17zm6-5-52 21 20 21z"/><path d="m749 763-6 63-68 7z" class="G"/><path d="m748 766-6 59-64 7zm3-6-79 74 72-7z"/><path d="m463 834 27-57 25 66z" class="H"/><path d="m490 780 24 61-49-8zm-7-24 7 18-29 60 56 10-27-70z"/><path d="m518 843-26-69-6-13 81 91z" class="G"/><path d="m489 766 75 84-46-8-26-68zm-6-10 7 18 27 70 52 9z"/><path d="m338 807 44-45 7 63z" class="I"/><path d="m382 765 6 59-48-17zm1-5-47 48 54 19z"/><path d="m337 809 49 18-66 16z" class="J"/><path d="m337 810 46 16-61 16zm-1-2-18 36 72-17z"/><path d="m289 822 40-77-12 98z" class="J"/><path d="m328 750-11 91-26-19zm3-11-43 84 30 22z"/><path d="m331 750 4 58-15 31z" class="I"/><path d="m331 761 3 46-12 25zm1-22-13 106 18-37z"/><path d="m332 743 29 38-24 25z" class="H"/><path d="m334 746 26 35-22 22zm-3-7 5 69 27-27z"/><path d="m338 807 23-23-1 31z" class="G"/><path d="m360 787-1 26-19-6zm3-6-27 27 25 8z"/><path d="m361 818 25 9-37 9z" class="H"/><path d="m361 819 22 7-32 8zm0-3-14 21 43-10z"/><path d="m334 742 47 19-18 19z" class="G"/><path d="m337 744 43 17-17 17zm-6-5 32 42 20-21z"/><path d="m391 826-6-63 74 70z" class="G"/><path d="m386 766 70 66-64-7zm-3-6 7 67 72 7zm176-166-1-1 7-79 4-42 30-139 1-1 79-52 1-1h1v1l10 97v1l-62 168-1 1-68 47z"/><path d="m680 281 9 96-61 168-69 48 8-79 3-42 31-139zm0-3h-1l-80 52-1 2-31 139-3 43-7 79 1 2 1 1 2-1 68-47 1-2 62-168v-1l-9-97-2-2z"/><path d="m595 509 29-132 45-37 19 37-61 166z" class="H"/><path d="m668 342 19 35-60 165-31-33 29-132zm0-3-45 38-30 133 34 36 61-168z"/><path d="m571 472 24-109 19-4 8 17-29 133-25 4z" class="G"/><path d="m613 361 8 16-29 130-23 5 3-40 24-109zm1-2-19 4-25 110-3 42 27-5 30-133z"/><path d="m616 358 62-74-10 54-44 37z" class="G"/><path d="m677 288-10 49-43 36-7-14zm3-8-66 78 9 18 46-38z"/><path d="m670 338 10-50 8 84z" class="J"/><path d="m680 295 6 71-15-28zm0-14-11 57 20 39z"/><path d="m602 333 73-48-61 72-18 3z" class="I"/><path d="m669 290-56 66-16 3 6-25zm11-10-79 53-7 28 20-3z"/><path d="m594 511 31 33-43 2z" class="G"/><path d="m594 513 29 30-39 2zm0-4-13 38 47-2z"/><path d="m581 548 43-2-62 44z" class="H"/><path d="m621 548-57 39 18-38zm7-3-47 2-22 46z"/><path d="m568 515 24-4-12 35-19 41z" class="I"/><path d="m590 512-11 34-17 35 7-65zm4-3-27 5-8 79 22-46z"/><path d="M589 594h-1l-69-48-62-169v-1l9-96 1-1h1l80 52v1l31 139 3 43 8 79z"/><path d="m468 281 79 52 31 139 3 42 7 79-68-48-62-168zm0-3h-2l-1 2-9 97v1l61 168 2 2 68 47 2 1 1-1 1-2-7-79-4-43-30-139-2-2-79-52z"/><path d="m460 377 19-37 44 37 30 132-32 34z" class="H"/><path d="m479 342 43 35 30 132-31 32-60-164zm-1-4-20 39 62 168 34-36-30-133z"/><path d="m555 508-30-132 9-17 18 3 24 110 4 41z" class="G"/><path d="m535 361 17 2 24 109 3 40-23-5-29-130zm-1-3-10 18 30 133 27 5-3-42-25-110z"/><path d="m480 338-11-54 63 74-8 17z" class="G"/><path d="m471 288 60 71-7 14-44-36zm-3-8 11 58 45 38 9-18z"/><path d="m468 288 9 50-17 34z" class="J"/><path d="m468 295 8 43-14 29zm0-15-10 97 21-39z"/><path d="m534 357-61-72 73 48 6 27z" class="I"/><path d="m478 290 67 44 5 25-16-3zm-10-9 65 77 20 4-6-29z"/><path d="m522 544 32-33 12 35z" class="G"/><path d="m553 513 11 32-39-1zm1-4-34 36 47 2z"/><path d="m524 546 42 2 20 42z" class="H"/><path d="m527 548 39 1 18 38zm-7-3 69 48-22-46z"/><path d="m568 547-12-36 24 4 7 72z" class="I"/><path d="m557 512 22 4 6 65-16-35zm-3-3 13 38 22 46-8-79zM377 686l-67-49-1-1-57-170v-1l12-96 1-1 1 1 78 54v1l27 140 2 42 6 79z"/><path d="m264 369 78 54 27 140 2 42 6 79-67-49-58-170zm0-3h-1l-2 2-11 96v2l57 170 1 1 67 49 2 1h1l2-3-6-79-2-43-27-140-2-2-77-54z"/><path d="m254 465 20-37 43 38 27 133-34 34z" class="H"/><path d="m274 430 42 37 26 132-31 32-56-166zm0-3-22 38 58 170 35-35-27-134z"/><path d="m346 599-27-133 10-17 18 4 21 110 2 41z" class="G"/><path d="m329 450 17 4 21 109 2 40-23-5-26-132zm-1-2-10 18 27 134 26 5-2-42-21-111z"/><path d="m275 426-9-54 61 76-9 16z" class="G"/><path d="m268 376 58 72-8 15-42-38zm-3-7 10 58 44 39 10-18z"/><path d="m264 376 9 51-19 33z" class="J"/><path d="m264 383 7 43-15 28zm-1-14-12 96 22-38z"/><path d="m329 447-60-73 72 49 5 28z" class="I"/><path d="m275 379 65 45 5 25-16-3zm-11-10 64 79 20 4-6-29z"/><path d="m312 634 32-32 11 35z" class="G"/><path d="m344 604 10 32-40-3zm1-4-35 35 47 3z"/><path d="m313 636 43 3 18 42z" class="H"/><path d="m317 637 38 3 17 38zm-7-2 67 49-20-46z"/><path d="m358 637-12-36 24 5 6 72z" class="I"/><path d="m348 602 21 5 5 65-15-35zm-3-3 12 38 20 46-6-79zm415 86-1-2 6-78 2-43 27-140v-1l78-54h1l1 1 12 96-57 170-1 1-67 50z"/><path d="m873 369 12 96-57 170-68 49 6-78 2-43 27-140zm0-3h-1l-78 55-2 1-27 140v1l-2 42-5 79 1 3h3l67-50 1-1 57-170v-1l-11-96q0-2-2-2z"/><path d="m794 599 26-133 43-38 21 37-57 168z" class="H"/><path d="m863 430 20 35-56 166-32-32 26-132zm1-3-45 39-26 134 34 35 58-170z"/><path d="m769 563 21-110 19-4 9 17-26 133-25 5z" class="G"/><path d="m808 450 9 16-26 132-23 5 2-40 21-109zm1-2-19 4-22 111-2 42 27-5 26-134z"/><path d="m811 448 60-76-8 54-44 38z" class="G"/><path d="m870 376-8 50-42 37-8-15zm3-7-64 79 10 18 45-40z"/><path d="m865 427 8-51 10 84z" class="J"/><path d="m873 383 8 72-15-29zm0-14-9 58 21 38z"/><path d="m796 424 72-50-59 73-18 4z" class="I"/><path d="m862 379-54 67-16 3 5-25zm11-10-78 54-5 29 19-4z"/><path d="m793 602 32 32-43 3z" class="G"/><path d="m794 604 29 29-40 2zm-1-3-12 38 47-3z"/><path d="m781 639 43-3-61 45z" class="H"/><path d="m821 637-55 41 16-38zm7-2-47 3-21 46z"/><path d="m767 606 24-5-11 36-18 41z" class="I"/><path d="m790 602-11 35-16 35 5-65zm3-2-27 5-6 79 21-46zm-142 66-1-1-2-94-3-75v-32l-15-24v-1l37-67 106-60h2v1l21 109v1l-17 82-1 1-29 1-97 158z"/><path d="m774 314 21 109-17 82-29 1-98 159-2-94-3-75v-32l-14-25 36-66zm0-2-106 60-1 1-37 66 1 3 14 24v32l2 74 3 94q0 2 2 3l3-2 97-158h28q2-1 2-3l17-81v-2l-21-109-1-2z"/><path d="m650 571 12-46 49-57-59 190z" class="H"/><path d="m708 473-55 179-2-81 12-46zm4-9-52 61-12 46 2 94z"/><path d="m648 496 39-80 25 48-51 59z" class="G"/><path d="m687 418 24 46-49 57-13-25zm0-5-41 83 15 28 52-60z"/><path d="m688 414 60-36 24 55-58 29z" class="H"/><path d="m748 380 23 52-57 29-25-47zm1-3-63 36 27 51 60-31z"/><path d="m714 465 57-30-23 70-93 152z" class="J"/><path d="m770 437-23 68-89 145 57-185zm3-4-60 31-62 201 98-159z"/><path d="m775 324 19 98-20 9z" class="I"/><path d="m776 335 16 87-17 8zm-2-21-1 119 22-10z"/><path d="m750 377 23-58-1 109z" class="G"/><path d="m772 325-1 98-20-46zm2-11-25 63 24 56z"/><path d="m771 319-23 57-56 33z" class="G"/><path d="m768 324-21 51-50 30zm6-10-88 99 63-36z"/><path d="m774 434 19-9-15 79-28 1z" class="H"/><path d="m792 427-15 76h-25l23-68zm3-4-22 10-24 73 29-1z"/><path d="m711 468-9 30-36 22z" class="I"/><path d="m708 473-7 24-30 19zm5-9-52 61 42-26z"/><path d="m647 464-14-24 35-65 17 38-38 79z" class="J"/><path d="m668 378 16 35-36 74v-24l-14-23zm0-5-36 66 14 25v32l41-83z"/><path d="m670 373 100-56-83 94z" class="I"/><path d="m765 321-78 89-16-36zm9-7-106 59 19 40z"/><path d="m648 501 12 24-10 39z" class="J"/><path d="m649 506 10 19-8 31zm-3-9 3 75 12-47zM486 666l-2-1-97-158-29-1-1-1-16-82 20-110h2l106 59h1l36 67v1l-14 24v33l-3 74-2 94z"/><path d="m363 314 106 59 36 67-14 24v33l-3 74-2 94-98-159-30-1-16-82zm0-3-1 2-21 109v1l17 82 2 2 28 1 97 158 3 2q2-1 2-3l3-94 2-74v-32l14-24v-3l-36-66-1-2-106-59z"/><path d="m426 468 49 57 12 46-2 88z" class="H"/><path d="m429 473 45 52 12 46-2 81zm-5-9 62 201 2-94-12-47z"/><path d="m425 464 25-48 39 80-13 27z" class="G"/><path d="m450 418 38 78-13 25-49-57zm0-5-26 51 52 60 15-28z"/><path d="m365 433 24-55 60 36-26 48z" class="H"/><path d="m389 380 58 34-24 47-57-29zm-1-3-24 56 60 31 26-51z"/><path d="m389 505-24-70 58 29 59 193z" class="J"/><path d="m367 437 55 28 57 185-89-145zm-3-4 24 73 98 159-62-201z"/><path d="m343 422 18-98 1 107z" class="I"/><path d="M361 335v95l-17-8zm2-21-21 109 22 10z"/><path d="m364 319 23 58-22 51z" class="G"/><path d="m365 325 21 52-20 46zm-3-10 2 119 24-56z"/><path d="m389 376-23-57 79 90z" class="G"/><path d="m369 324 71 81-50-30zm-7-10 26 63 62 36z"/><path d="m359 504-16-79 20 9 24 71z" class="H"/><path d="m345 427 17 8 23 68h-25zm-3-4 16 82 30 1-24-73z"/><path d="m435 498-9-30 45 52z" class="I"/><path d="m429 473 36 43-29-19zm-5-9 10 35 42 26z"/><path d="m452 413 17-38 35 64-14 25v28z" class="J"/><path d="m469 378 34 62-14 23v24l-36-74zm0-4-19 40 41 83v-32l14-25z"/><path d="m367 318 100 55-17 38z" class="I"/><path d="m372 321 94 53-16 36zm-9-7 87 99 19-40z"/><path d="m477 525 12-24-2 63z" class="J"/><path d="m488 506-2 51-8-32zm3-10-15 28 12 47zm182 340-1-1-29-60v-1l3-40 1-35 1-34 1-1 97-159 1-1 129-16 1 1 19 136v1z"/><path d="m875 489 18 136-221 209-29-60 3-40 1-35 2-34 97-159zm-1-3-129 17-2 1-97 159-1 2-1 34-1 35-3 40 1 1 29 60q0 2 2 2l2-1 221-209 1-3-19-136q0-2-3-2"/><path d="m644 774 3-39 36-16-7 65z" class="J"/><path d="m682 721-7 62-29-10 2-37zm2-4-38 17-3 40 34 11z"/><path d="M678 786h30l-3 15-20 5z" class="I"/><path d="m707 787-3 13-19 5-6-18zm2-2h-32l7 23 22-6z"/><path d="m645 776 31 10 7 22-11 24z" class="G"/><path d="m647 778 28 9 7 21-10 21zm-4-4 29 60 12-26-7-23z"/><path d="m710 786 137-151 43-8-182 172z" class="J"/><path d="M887 628 710 796l1-10 137-150zm6-3-46 9-138 151-3 17z"/><path d="m678 784 7-67 62-132h86l13 49-137 150z" class="H"/><path d="m832 586 13 48-137 149h-29l7-65 61-132zm2-2h-88l-62 133-7 68h32l138-151z"/><path d="m648 699 97-151v36l-62 132-36 17z" class="G"/><path d="M744 552v31l-61 133-35 15 1-31zm2-8-99 155-1 35 38-17 62-133z"/><path d="M747 583v-38l125-54-39 92z" class="G"/><path d="m871 493-39 89h-84v-36zm5-4-129 55v40h88z"/><path d="m747 507 120-16-120 52z" class="I"/><path d="m860 493-112 48v-34zm15-4-129 17v38z"/><path d="m835 584 39-91 18 131-44 9z" class="I"/><path d="m874 497 17 126-42 9-13-48zm1-8-41 95 13 50 46-9z"/><path d="m649 665 96-156v35l-97 151z" class="J"/><path d="M744 513v31l-95 147 1-26zm2-7-98 159-1 34 99-155z"/><path d="m685 809 18-5-28 26z" class="H"/><path d="m699 806-20 20 7-16zm7-4-22 6-12 26zm-244 34-1-1-221-209-1-1 19-136 1-1 129 16 1 1 98 159v1l2 34v35l3 40v1l-29 60z"/><path d="m259 489 129 17 98 159 1 34 1 35 3 40-29 60-221-209zm-1-3-2 3-19 136v2l221 209 2 1h1l2-1 29-60v-2l-3-39-1-36-1-34-1-1-97-160-2-1z"/><path d="m451 719 36 16 2 39-31 10z" class="J"/><path d="m452 721 34 15 2 37-29 10zm-2-4 7 68 34-11-3-40z"/><path d="m428 801-2-15h30l-7 21z" class="I"/><path d="m454 787-6 18-19-5-2-13zm3-2h-32l3 17 22 6z"/><path d="m451 808 7-22 31-10-27 56z" class="G"/><path d="m487 778-25 51-10-21 7-21zm4-4-34 11-7 23 12 26z"/><path d="m244 627 42 8 138 151 2 13z" class="J"/><path d="m247 628 39 8 137 150 1 10zm-7-3 187 177-3-17-137-151z"/><path d="M425 784 288 634l13-49h86l62 132 7 67z" class="H"/><path d="m387 586 61 132 7 65h-30L290 634l13-48zm1-2h-88l-13 50 137 151h33l-7-68z"/><path d="m450 716-61-133v-35l97 151 1 34z" class="G"/><path d="m390 552 95 147 1 32-35-15-61-133zm-2-7v40l62 133 38 17-1-35z"/><path d="m301 583-40-92 126 54v38z" class="G"/><path d="m263 493 123 53v36h-85zm-4-4 41 95h88v-40z"/><path d="m267 491 120 15v37z" class="I"/><path d="m274 493 112 14v34zm-15-4 129 55v-38z"/><path d="m242 624 18-131 39 91-13 49z" class="I"/><path d="m260 497 38 87-12 48-43-9zm-2-8-18 136 46 9 13-50z"/><path d="M389 544v-35l96 156 1 30z" class="J"/><path d="m390 513 94 152 1 26-95-147zm-2-7v38l99 155-1-34z"/><path d="m431 804 18 5 10 21z" class="H"/><path d="m435 806 13 4 7 16zm-8-4 35 32-12-26zm143 53-2-1-86-97v-1l4-43-11-254 1-1 97-115h1l2 1 71 119v1l7 253v1l-10 57z"/><path d="m575 344 71 120 7 253-9 57-74 79-87-97 4-43-10-254zm0-2h-2l-98 115-1 2 11 254-4 42v2l87 98 2 1 2-1 73-79 1-1 9-57v-1l-6-253v-2l-72-119z"/><path d="m537 478 38-130 40 134-39 28z" class="H"/><path d="m575 352 39 130-38 27-37-31zm0-8-39 134 40 33 40-29z"/><path d="m504 512 32-32 38 32-38 57z" class="J"/><path d="m536 481 37 31-37 55-30-55zm0-3-33 34 33 59 40-59z"/><path d="m479 460 55 19-31 31z" class="I"/><path d="m481 462 51 17-28 29zm-4-3 26 52 33-33z"/><path d="m488 712-10-249 24 49 18 215z" class="H"/><path d="m480 468 21 44 17 213-29-13zm-3-10 11 255 33 16-18-217z"/><path d="m547 728-10-157 39-59 39-27-5 251z" class="H"/><path d="m614 487-5 248-62-8-9-156 39-58zm2-4-40 30-40 59 10 158 65 8z"/><path d="m617 483 28-17 6 251-39 18z" class="J"/><path d="m644 468 6 248-37 18 5-250zm2-4-30 18-5 255 42-20z"/><path d="m578 352 67 112-28 17z" class="I"/><path d="m582 360 62 103-27 16zm-6-16 41 138 30-18z"/><path d="m479 458 93-109-37 128z" class="G"/><path d="m570 353-35 123-55-19zm5-9-98 115 59 19z"/><path d="m522 728-18-212 31 55 9 157z" class="G"/><path d="m506 521 28 50 9 155h-20zm-3-9 17 217h25l-9-158z"/><path d="m651 722-9 52-66 71z" class="J"/><path d="m649 727-8 46-59 64zm3-10-83 136 74-79z"/><path d="m589 773 23-35 38-18-78 127z" class="I"/><path d="m647 722-73 119 16-68 23-34zm6-5-42 20-23 35-19 81z"/><path d="m547 730 62 8-21 33-32 3z" class="J"/><path d="m548 731 59 8-20 31-31 3zm-2-2 9 47 33-4 23-35z"/><path d="m556 776 31-3-17 75z" class="G"/><path d="m586 775-16 68-13-66zm3-3-33 3 14 78z"/><path d="M522 730h23l9 46 12 67z" class="J"/><path d="m544 731 9 45 11 56-40-101zm2-2h-25l49 124-15-77z"/><path d="m488 715 31 14-34 25z" class="G"/><path d="m489 716 27 13-30 22zm-2-3-4 43 37-28z"/><path d="m485 756 35-26 46 118z" class="H"/><path d="m520 732 43 111-77-87zm1-3-38 27 87 97zm-8-506 7-1v33h11v-43l-18 2zm43-11q-10 0-15 5-5 8-4 17 1 12 4 17 5 5 15 5c11 0 12-2 16-5q4-6 4-17c0-11-1-13-4-17q-5-5-16-5m-8 22q0-7 2-10 2-4 6-3 6 1 7 3l2 10q0 7-2 10-2 4-7 3-6-1-6-3-2-3-2-10m52-22q-10 0-15 5-5 8-5 17 0 12 5 17t15 5c11 0 12-2 16-5q4-6 4-17c0-11-1-13-4-17q-5-5-16-5m7 32q-2 3-7 3-6 0-7-3-2-3-2-10 0-9 2-10l7-3q6-1 7 3l2 10q1 7-2 10m-87-82v35h11v-35h12v-8h-36v8zm60-3q-6-6-16-6c-11 0-13 2-16 6s-6 9-6 17 2 12 6 16 8 5 16 5 12-1 16-5 5-9 5-16-2-14-5-17m-8 26q-3 3-8 3-8 0-8-3-3-3-3-9 0-8 3-11t8-2 8 2 2 11c-1 8-1 7-3 9zm51-27q-4-4-12-4h-21v43h11v-13h10l8-2q4-2 5-5c2-3 2-3 2-8s-1-8-4-11zm-9 16-5 2h-8v-14h8q3 0 5 2l1 5zm-90 785h13l9-13 10 13h13l-16-21 15-22h-12l-9 13-9-13h-13l15 22zm71-43h-21v43h11v-12h10q5 0 8-2l5-5 2-8q0-6-4-11-5-6-11-5m3 21-5 2h-8v-14h8q3 0 5 2l1 5zm-90 58-8-3-6-2-2-1-1-2q-1-2 2-3l6-1 11 2v-9l-6-1-7-1q-9 0-13 3-4 4-4 10c0 6 0 4 1 5q1 3 4 4l7 3 6 2 3 2 1 3q0 2-2 3l-6 1-13-3v9l6 2h8q9 0 13-3 5-3 5-9l-2-6zm41-14v-6h-33v8h19l-20 29v5h34v-8h-20zm30 19-18-25h-9v42h11v-25l18 26h9v-43h-10zm70-22q-4-4-13-4c-9 0-10 1-13 4s-4 1-4 11 5 14 15 14 3 0 5-1l4-2v2l-2 6-8 2-10-2v9l11 1q6 0 10-2 6-3 7-6l2-10v-9q0-8-4-13m-9 16-4 1-6-1q-2-2-2-6t2-4 6-2q5 0 5 2l2 5v4z"/></svg>