<svg xmlns="http://www.w3.org/2000/svg" viewBox="0 0 1512 1512"><style>.F{fill:#ffe1ff}.G{fill:#fa34f3}.H{fill:#ff7dff}.I{fill:#af00af}</style><path d="M756 1512A756 756 0 0 0 756 0a756 756 0 0 0 0 1512" class="G"/><path d="m759 1140-1-1v-2l99-106h1l2 1 38 80v2l-1 1-137 25z"/><path d="m858 1033 38 80-137 25zm0-4-3 1-98 105q-2 2-1 5l3 2h1l137-26q2 0 3-2v-3l-39-80z"/><path d="m1087 1128-95-24-95 10-2-1v-2l105-99 70-28 2 1 58 111-1 3-41 29z"/><path d="m1070 986 58 111-41 29-95-24-96 10 105-99zm0-4h-1l-70 28h-1l-104 99-1 5 3 2h1l94-11 95 24h1l2-1 41-29q2-2 1-5l-58-111zm-311 158-144-26h-1v-2l38-79-10-24 1-3h1l2 1 115 130v2z"/><path d="m644 1007 115 130-144-25 39-80zm0-3h-2q-2 2-1 5l9 23-38 79v3q1 2 3 2l144 25q2 0 3-2v-4l-115-130q-1-2-3-1"/><path d="m424 1128-40-30q-2 0-1-2l58-111 1-1h1l70 28q0-1 0 0l104 99 1 2-2 1-95-10z"/><path d="m442 986 69 28 104 98-95-10-96 24-40-29zm1-4q-3 0-4 2l-57 111 1 5 41 29 2 1h1l94-24 95 10h1q2 0 3-2t-1-4l-104-99-2-1z"/><path d="m857 1035 37 76-131 25z" class="H"/><path d="m857 1037 35 73-125 23zm1-5-99 106 137-26z"/><path d="m1002 1017 59 59-67 24z" class="G"/><path d="m1003 1020 56 56-64 22zm-2-7-9 89 72-25z"/><path d="m997 1102 66-23 22 45z" class="I"/><path d="m1062 1081 21 41-81-20zm1-3-71 25 95 24z"/><path d="m1073 993 53 104-38 27z" class="I"/><path d="m1075 1001 50 95-35 25zm-5-15 18 140 40-29z"/><path d="m1065 1077 6-77 14 118z" class="G"/><path d="m1071 1014 12 96-17-34zm-1-28-7 91 24 49z"/><path d="m1030 1042 39-52-7 84z" class="H"/><path d="m1067 995-6 76-29-30zm3-9-42 56 36 35z"/><path d="m1030 1045 31 32-29 10z" class="F"/><path d="m1032 1049 26 27-25 8zm-3-6 3 46 33-11z"/><path d="m997 1102 33-12 16 24z" class="H"/><path d="m1030 1092 13 20-41-10zm1-3-39 14 57 14z"/><path d="m1003 1014 63-25-38 50z" class="F"/><path d="m1062 992-34 45-22-23zm8-6-69 28 28 28z"/><path d="m999 1017-8 84-91 10z" class="F"/><path d="m997 1021-8 79-85 9zm4-8-105 99 96-10z"/><path d="m617 1111 37-75 33 87z" class="H"/><path d="m654 1039 31 83-66-12zm-10-31 10 24-39 80 74 13-35-93z"/><path d="m690 1124-35-92-7-18 108 122z" class="F"/><path d="m652 1021 100 113-61-11-35-91zm-8-14 10 25 35 93 70 13z"/><path d="m451 1076 59-59 8 83z" class="G"/><path d="m509 1020 8 78-64-22zm2-7-63 64 72 25z"/><path d="m449 1079 66 23-88 22z" class="I"/><path d="m450 1081 60 21-80 20zm-2-3-24 49 96-24z"/><path d="m386 1097 53-104-16 131z" class="I"/><path d="m437 1001-15 120-34-25zm5-14-58 111 41 29z"/><path d="m441 1000 6 77-20 41z" class="G"/><path d="m441 1014 4 62-16 34zm1-28-18 140 24-49z"/><path d="m443 990 39 52-33 32z" class="H"/><path d="m445 995 35 46-30 30zm-3-9 6 91 36-35z"/><path d="m451 1076 31-31-3 42z" class="F"/><path d="m480 1049-2 35-25-8zm3-7-35 35 33 11z"/><path d="m481 1090 34 12-50 12z" class="H"/><path d="m482 1092 28 10-42 10zm-2-4-18 29 58-15z"/><path d="m446 989 62 25-25 26z" class="F"/><path d="m450 992 56 23-22 22zm-8-7 42 57 27-29z"/><path d="m521 1101-8-84 98 94z" class="F"/><path d="m515 1021 92 88-85-9zm-3-8 9 89 95 10zm235-221h-1l-1-1 10-105 4-57 41-186 1-1 106-69 1-1 2 2 12 128v1l-82 225-1 1z"/><path d="m907 374 12 128-82 225-91 63 10-104 4-57 41-186zm0-4-2 1-106 69-1 3-41 185v1l-5 56-10 105 2 4h4l91-64 1-2 83-224v-2l-13-128q0-2-2-3z"/><path d="m793 679 39-177 60-49 26 50-82 222z" class="H"/><path d="m891 455 25 48-80 219-41-44 39-175zm1-4-61 51-40 177 46 48 82-224z"/><path d="m762 629 32-145 24-5 12 23-40 176-33 6z" class="F"/><path d="m817 481 11 21-39 174-30 6 4-53 32-145zm1-3-26 4-33 147-4 57 36-7 40-177z"/><path d="m821 478 84-99-14 71-59 50z" class="F"/><path d="m902 384-12 65-58 48-10-19zm5-10-88 104 12 24 61-51z"/><path d="m893 451 13-67 11 112z" class="I"/><path d="m906 394 9 95-20-39zm1-20-15 77 27 51z"/><path d="m802 444 97-64-81 96-24 4z" class="G"/><path d="m892 387-75 88-21 4 7-34zm15-13-106 70-8 38 26-4z"/><path d="m792 682 42 44-58 2z" class="F"/><path d="m793 684 38 40-53 2zm-2-5-17 50 63-2z"/><path d="m775 731 57-2-83 58z" class="H"/><path d="m828 730-75 52 23-50zm9-3-63 2-28 61z"/><path d="m757 687 32-6-16 48-25 54z" class="G"/><path d="m787 683-15 45-22 47 8-87zm4-4-35 7-10 104 28-61z"/><path d="M785 792h-1l-92-64v-1l-83-224v-1l13-128 1-2 1 1 106 69 1 1 41 186 4 57 10 104z"/><path d="m623 374 106 70 41 185 4 57 10 105-91-64-82-224zm0-4-1 1q-2 1-2 3l-13 128v2l83 224 1 2 91 64h4q2-1 2-4l-10-104-4-57v-1l-41-185-2-3-106-69z"/><path d="m613 503 26-50 59 49 39 176-43 46z" class="H"/><path d="m639 455 57 48 40 175-42 44-80-219zm-1-4-27 52 82 224 45-48-40-177z"/><path d="m740 678-40-176 12-23 24 4 33 146 4 55z" class="F"/><path d="m713 481 22 3 32 145 5 53-31-5-39-175zm-2-3-12 24 40 177 36 7-5-57-32-147z"/><path d="m639 450-13-71 84 99-12 22z" class="F"/><path d="m628 384 80 94-10 19-57-48zm-5-10 15 77 61 51 12-24z"/><path d="m624 384 13 67-24 45z" class="I"/><path d="m624 394 11 57-20 38zm-1-20-12 128 27-51z"/><path d="m712 476-81-96 97 64 8 36z" class="G"/><path d="m638 387 88 58 8 34-22-4zm-15-13 88 104 27 4-9-38z"/><path d="m697 726 41-44 16 46z" class="F"/><path d="m738 684 14 42-52-1zm1-6-45 48 62 2z"/><path d="m698 729 57 2 26 56z" class="H"/><path d="m703 730 51 2 24 50zm-10-3 92 64-29-62z"/><path d="m757 729-16-48 32 6 10 96z" class="G"/><path d="m743 683 29 5 8 87-22-47zm-4-4 17 50 29 61-10-104zM503 914h-2l-89-66-1-1-76-227v-1l15-128 1-1h2l104 72 1 1 36 187 3 57 7 105z"/><path d="m352 492 104 72 36 186 3 57 8 105-90-66-77-227zm0-3h-1q-2 1-2 3l-16 128v2l76 226 1 2 90 66 2 1 2-1q2-1 2-3l-8-105-3-57-36-187-1-2-104-72z"/><path d="m338 620 27-49 58 51 35 177-45 45z" class="H"/><path d="m366 573 56 50 35 176-43 42-75-221zm0-4-28 51 76 226 46-46-35-179z"/><path d="m461 798-35-177 12-22 24 5 29 146 2 56z" class="F"/><path d="m439 601 22 4 28 145 3 54-30-7-35-175zm-2-4-13 24 36 178 35 8-3-57-28-147z"/><path d="m366 568-12-71 82 101-12 21z" class="F"/><path d="m357 501 77 96-10 20-57-50zm-5-9 13 77 59 52 13-23z"/><path d="m352 501 11 68-24 44z" class="I"/><path d="m353 511 9 57-21 38zm-1-19-15 128 28-51z"/><path d="m438 596-79-98 96 67 7 36z" class="G"/><path d="m366 505 87 61 7 33-21-4zm-14-13 85 105 27 6-8-39z"/><path d="m416 845 43-43 15 47z" class="F"/><path d="m458 805 13 42-52-3zm2-6-47 47 63 4z"/><path d="m418 848 57 4 24 56z" class="H"/><path d="m422 850 52 3 22 51zm-9-4 90 66-28-62z"/><path d="m477 850-15-48 32 6 7 96z" class="G"/><path d="m464 803 28 7 7 86-21-47zm-4-4 16 51 27 62-8-105zm554 115h-1l-1-2 8-105 3-56 36-187v-1l104-72 1-1h1l1 2 16 128v1l-77 226v1z"/><path d="m1164 492 16 128-77 226-89 66 7-105 3-57 36-186zm0-4-2 1-104 72-2 2-35 187-3 57-8 105q0 2 2 3l2 1 2-1 89-66 2-1 76-227v-2l-16-128q0-2-2-3z"/><path d="m1058 799 35-177 58-51 27 49-75 224z" class="H"/><path d="m1151 573 26 47-75 221-42-42 34-176zm1-4-59 52-35 179 46 46 76-226z"/><path d="m1026 750 28-146 24-5 13 22-36 177-32 7z" class="F"/><path d="m1077 601 12 20-35 176-30 7 3-54 28-145zm2-3-26 6-29 147-3 57 36-8 35-178z"/><path d="m1081 598 81-101-12 71-58 51z" class="F"/><path d="m1160 501-11 66-56 50-11-19zm4-10-85 105 13 24 59-52z"/><path d="m1153 569 11-68 14 112z" class="I"/><path d="m1164 511 11 95-21-38zm0-19-13 77 29 51z"/><path d="m1061 565 96-67-79 98-23 5z" class="G"/><path d="m1150 505-73 90-21 4 7-33zm14-13-104 72-7 39 26-6z"/><path d="m1057 802 43 43-57 4z" class="F"/><path d="m1058 805 39 39-52 3zm-1-6-16 51 62-4z"/><path d="m1042 852 57-4-82 60z" class="H"/><path d="m1094 850-73 54 22-51zm9-4-62 4-27 62z"/><path d="m1023 808 32-7-16 49-23 54z" class="G"/><path d="m1053 803-15 46-20 47 6-87zm4-4-36 8-8 105 28-62zm-189 89-2-2-3-125-3-99v-43l-20-32v-2l49-89h1l141-79h2l1 1 27 145v1l-22 109-1 2-39 1-129 211z"/><path d="m1033 418 27 146-22 109-40 1-130 212-3-125-4-99v-44l-19-32 49-89zm0-3h-1l-142 79-1 1-49 89v4l19 32v42l4 99 3 126 2 3h1l4-2 129-210 37-1q3 0 4-4l22-109v-1l-28-146-2-2z"/><path d="m867 761 16-61 65-76-79 254z" class="H"/><path d="m945 630-74 239-3-108 16-60zm6-12-70 81-16 62 3 125z"/><path d="m863 662 52-108 34 64-67 79z" class="F"/><path d="m916 557 32 61-66 76-17-32zm-1-6-53 111 19 37 70-81z"/><path d="m917 552 81-47 31 72-77 39z" class="H"/><path d="m997 507 31 69-76 39-33-63zm1-4-83 48 36 67 80-41z"/><path d="m952 619 77-39-32 93-124 203z" class="I"/><path d="m1026 583-30 90-119 193 76-246zm5-6-80 41-83 268 130-212z"/><path d="m1034 433 24 130-25 12z" class="G"/><path d="m1035 447 22 115-23 11zm-3-29-1 159 29-13z"/><path d="m1000 503 31-78-1 146z" class="F"/><path d="m1029 433-1 131-27-62zm4-15-34 85 32 74z"/><path d="m1028 425-31 77-75 44z" class="F"/><path d="m1024 432-28 69-67 39zm8-14L917 551l83-48z"/><path d="m1032 579 26-13-21 105-37 2z" class="H"/><path d="m1056 569-21 101-33 1 31-92zm4-5-29 14-33 96 40-1z"/><path d="m948 624-13 40-47 29z" class="G"/><path d="m945 630-11 33-39 25zm6-12-70 81 56-34z"/><path d="m863 618-19-32 47-86 23 51-51 105z" class="I"/><path d="m891 503 21 48-48 99v-33l-18-31zm0-7-49 89 20 32v44l53-111z"/><path d="m893 498 133-75-110 125z" class="G"/><path d="M1020 428 916 546l-22-48zm13-10-142 79 25 54z"/><path d="m863 668 17 31-14 52z" class="I"/><path d="m865 674 13 26-11 42zm-3-12 3 99 16-62zM647 888l-1-1-130-211-38-1q-2 0-2-2l-22-109 27-146 1-1h2l142 79v1l49 88v2l-19 32v43l-4 99-3 126z"/><path d="m483 418 142 79 48 89-19 32v44l-4 99-3 125-130-212-39-1-22-109zm0-3h-1q-2 1-2 3l-28 145v2l22 109 4 3 37 1 129 211 4 1h1q2 0 2-3l3-126 4-99v-42l19-32v-4l-49-88-1-2-142-79z"/><path d="m568 624 65 76 16 61-3 117z" class="H"/><path d="m571 630 61 71 16 60-3 108zm-6-12 82 268 4-125-16-62z"/><path d="m566 618 34-64 52 108-18 35z" class="F"/><path d="m600 557 51 105-17 32-66-76zm0-6-35 67 69 81 20-37z"/><path d="m486 577 32-73 81 48-35 65z" class="H"/><path d="m519 507 78 45-34 63-75-39zm-2-4-32 74 80 41 35-67z"/><path d="m519 674-32-94 76 39 80 257z" class="I"/><path d="m489 583 73 37 76 246-118-193zm-4-6 32 97 130 212-82-268z"/><path d="m458 563 24-130 1 142z" class="G"/><path d="m481 447 1 126-23-11zm2-29-27 146 29 13z"/><path d="m485 426 31 77-30 68z" class="F"/><path d="m486 433 28 69-27 62zm-3-15 2 159 32-74z"/><path d="m518 502-30-77 106 121z" class="F"/><path d="m492 432 95 108-68-39zm-9-14 34 85 83 48z"/><path d="m479 671-21-105 26 13 32 94z" class="H"/><path d="m460 569 22 10 31 92-33-1zm-4-5 22 109 40 1-33-96z"/><path d="m580 664-12-40 59 69z" class="G"/><path d="m571 630 49 57-39-24zm-6-12 14 47 55 34z"/><path d="m602 551 23-51 47 86-19 32v38z" class="I"/><path d="m625 503 45 83-18 31-1 1v32l-48-99zm0-6-25 54 54 111v-44l19-32z"/><path d="m490 423 133 75-23 51z" class="G"/><path d="m496 428 125 70-21 48zm-13-11 117 133 25-54z"/><path d="m636 700 16-32-3 84z" class="I"/><path d="m651 674-3 68-11-42zm3-12-20 37 16 62zm242 452-1-1-39-80v-1l4-53 1-48 2-45v-1l130-212 2-1 172-22 1 2 25 181v2l-295 279h-1z"/><path d="m1166 652 25 181-294 280-39-80 4-54 1-47 2-45 130-213zm0-3-172 21-3 2-130 212v2l-2 45-1 48-4 53v2l39 80 2 2h1l3-1 294-279q2-2 1-4l-25-181q0-3-3-3z"/><path d="m859 1031 4-51 48-21-10 86z" class="I"/><path d="m909 961-9 82-39-12 3-50zm3-5-51 23-3 53 44 15z"/><path d="M904 1048h40l-3 20-28 7z" class="G"/><path d="m942 1050-3 17-25 7-8-24zm4-3h-44l10 30 30-8z"/><path d="m860 1035 41 13 10 29-15 32z" class="F"/><path d="m863 1037 37 12 9 28-13 29zm-5-4 38 80 16-36-10-30z"/><path d="m947 1048 183-201 57-11-243 230z" class="I"/><path d="m1182 838-236 223 2-13 183-200zm9-5-62 13-183 201-4 23z"/><path d="m904 1046 10-89 81-177h115l18 65-183 201z" class="H"/><path d="m1109 781 17 64-182 200h-39l10-88 81-176zm2-3H994l-82 178-10 91h44l183-202z"/><path d="m864 932 129-201v47l-82 177-48 22z" class="F"/><path d="M992 735v43l-82 176-46 21 1-42zm3-10L863 932l-1 47 51-23 82-178z"/><path d="M996 777v-50l167-72-53 122z" class="F"/><path d="m1161 658-52 118H998v-48zm6-6-172 74v52h118z"/><path d="m996 675 160-20-160 69z" class="G"/><path d="m1147 658-150 64v-45zm19-5-172 22v52z"/><path d="m1113 779 52-122 24 175-59 12z" class="G"/><path d="m1165 663 23 168-57 11-17-63zm1-11-54 126 17 67 62-12z"/><path d="m866 887 127-208v46L864 927z" class="I"/><path d="M992 684v41L866 921l1-34zm3-10L864 886l-2 46 132-206z"/><path d="m913 1078 24-6-36 35z" class="H"/><path d="m932 1075-27 26 9-22zm10-6-30 8-16 35zm-327 45L320 835l-1-2 25-181 2-2 172 22 1 1 130 212 1 1 2 45 1 48 3 53v1l-38 80-1 1z"/><path d="m346 652 171 22 130 212 2 46 1 47 4 53-38 80-295-279zm0-3q-3 0-4 3l-25 181 1 3 295 279 2 1h1q2 0 2-2l39-80v-1l-3-54-1-47-2-45-1-2-130-212-3-2z"/><path d="m601 959 48 21 4 51-43 14z" class="I"/><path d="m603 961 45 20 3 50-39 13zm-3-5 9 91 45-15-4-53z"/><path d="m571 1068-3-20h40l-9 27z" class="G"/><path d="m605 1050-8 24-25-7-3-17zm4-3h-43l4 22 30 8z"/><path d="m601 1077 10-29 40-13-36 74z" class="F"/><path d="m649 1037-34 69-13-29 10-28zm5-5-45 15-9 30 16 35z"/><path d="m325 836 57 11 183 201 3 18z" class="I"/><path d="m330 838 51 10 183 200 2 13zm-9-5 249 236-4-22-184-201z"/><path d="M567 1046 384 845l17-65h115l82 177 10 89z" class="H"/><path d="m516 781 81 176 9 88h-39L386 845l16-64zm1-3H400l-17 67 183 202h44l-10-91z"/><path d="m601 955-82-177v-47l129 201 1 45z" class="F"/><path d="m520 735 127 197 1 43-46-21-82-176zm-3-9v52l83 178 50 23-1-47z"/><path d="m401 777-53-122 168 72v50z" class="F"/><path d="m351 658 163 70v48H402zm-5-6 54 126h117v-52z"/><path d="m355 655 161 20v49z" class="G"/><path d="m365 658 149 19v45zm-19-6 171 74v-52z"/><path d="m322 832 24-175 53 122-17 65z" class="G"/><path d="m347 663 50 116-16 64-57-12zm-1-11-25 181 61 13 18-68z"/><path d="M519 725v-46l127 208 2 40z" class="I"/><path d="m520 684 125 203 1 34-126-196zm-3-10v52l132 206-2-46z"/><path d="m575 1072 24 6 12 28z" class="H"/><path d="m580 1075 18 4 9 22zm-10-6 45 44-16-36zm189 71-1-1-115-130-1-2 6-56-14-340v-1l130-152 2-1 1 1 96 159v1l8 338v1l-12 76v1l-99 105z"/><path d="m766 459 96 159 8 338-12 76-99 106-115-131 6-56-14-340zm0-4-3 2-130 152-1 3 14 339-5 56 1 3 115 130 2 1 3-1 99-105 1-2 12-76v-1l-9-338v-2l-96-159z"/><path d="m716 637 50-173 54 179-52 37z" class="H"/><path d="m766 469 52 173-50 37-50-42zm0-10-51 179 53 44 54-39z"/><path d="m672 682 43-42 51 42-51 76z" class="I"/><path d="m715 641 49 41-49 74-41-74zm0-3-44 44 44 79 53-79z"/><path d="m639 614 73 24-41 41z" class="G"/><path d="m641 616 69 23-39 38zm-5-5 35 71 44-44z"/><path d="m651 950-13-332 31 64 24 287z" class="H"/><path d="m639 625 29 58 23 284-38-18zm-3-14 14 340 44 20-23-289z"/><path d="m729 970-13-209 52-78 52-37-7 335z" class="H"/><path d="m819 649-7 330-82-10-12-208 51-77zm3-6-54 39-53 79 13 210 87 11z"/><path d="m823 644 37-23 8 334-52 25z" class="I"/><path d="m859 623 8 332-49 23 6-333zm3-5-40 25-7 339 55-26z"/><path d="m771 469 89 149-38 23z" class="G"/><path d="m775 479 83 138-35 22zm-9-20 56 184 40-25z"/><path d="m638 611 125-146-49 171z" class="F"/><path d="m760 471-47 163-72-24zm6-11L636 611l79 27z"/><path d="m695 970-23-282 42 74 12 208z" class="F"/><path d="m675 694 37 68 13 207h-28zm-4-12 23 290h33l-12-211z"/><path d="m868 963-11 69-90 95z" class="I"/><path d="m865 970-10 61-79 85zm5-14-111 182 99-106z"/><path d="m785 1030 31-46 50-24-104 170z" class="G"/><path d="m863 963-97 159 21-91 30-46zm7-7-56 27-30 47-25 108z"/><path d="m729 973 83 11-29 45-42 3z" class="I"/><path d="m731 975 79 10-27 42-41 4zm-4-3 13 62 44-4 30-47z"/><path d="m741 1035 41-4-23 100z" class="F"/><path d="m781 1033-22 91-16-88zm3-3-44 4 19 104z"/><path d="M696 973h30l12 61 17 90z" class="I"/><path d="m725 974 12 60 14 75-53-135zm2-2h-33l65 166-19-104z"/><path d="m651 953 40 19-45 33z" class="F"/><path d="m652 955 37 17-41 30zm-2-4-6 56 50-36z"/><path d="m646 1008 47-34 62 157z" class="H"/><path d="m693 976 58 148-102-116zm1-4-50 36 116 130zm-68 273 20-23h-16l-20 22v-22h-14v57h14v-17l7-8 15 25h16zm29-23h14v57h-14zm38 23 24 34h12v-57h-14v34l-25-34h-12v57h15zm49 6 10 4 8 2 4 3 1 3q0 4-2 4l-8 1-9-1-9-2v12l9 2h-1l11 1q12 0 18-4 6-5 6-13c0-7-1-5-2-8s-2-4-5-5q-4-3-11-5l-7-2-3-2-1-3q0-3 2-4l8-1 15 3v-13l-8-1-9-1q-11 1-17 4-6 5-6 13l1 8zm96 28v-57h-14v23h-23v-23h-14v57h15v-22h22v22zm9-57h15v57h-15zm67 6q-5-6-15-6h-28v57h14v-17h13q7 0 11-2 5-3 7-7c3-5 3-5 3-11s-2-11-5-14m-12 21-7 2h-10v-18h11q4 0 6 2l2 7zm-225 78-11-4-7-3-4-1-1-4q0-3 3-3c3 0 3-2 8-2l15 3v-12l-8-2h-9q-12 0-17 4-6 4-6 12c0 9 0 6 1 8l5 5 10 4 8 3 4 2 1 4-2 4-9 1-8-1-9-3v12l8 3 11 1q12 0 17-5 7-6 6-12l-1-8zm55-19v-8h-44v11h25l-27 38v8h46v-12h-27zm41 26-25-34h-12v57h14v-34l25 34h12v-57h-14zm75-35q-11 0-17 5c-6 5-6 2-6 14s7 20 20 20 5 0 7-1l6-3v2q0 5-4 7-3 3-10 3-9 0-13-2v11l14 3q8 0 14-3 8-4 9-9l4-13v-12q0-11-6-17-7-6-18-5m5 27-5 1-8-2q-2-3-2-7 0-5 2-7 3-2 8-2 7 0 7 3l3 7v5zM773 212q-8-8-22-8c-14 1-16 3-21 8s-7 12-7 22 2 17 7 22 12 7 21 7 17-2 22-7 7-12 7-22-3-18-7-22m-11 35q-3 4-10 4c-8 0-9-1-11-4q-3-3-3-13c0-10 1-11 3-13s6-4 11-4 8 1 10 4 3 7 3 13-1 10-3 13m68-36q-5-5-15-6h-28v58h14v-17h14q6 0 11-3 4-2 7-7c2-4 2-4 2-10s-2-11-5-15m-12 21-7 3h-10v-18h11q4 0 6 2 3 3 2 7 1 5-2 6m-134 66 10-2v44h14v-58l-24 4zm58-16q-14 0-21 8-8 9-6 22c2 13 2 17 6 22q7 8 21 8c14 0 16-3 20-8q6-7 6-22c0-15-2-17-6-22q-6-8-20-8m9 43q-3 4-9 4-9 0-9-4-3-4-3-13 0-12 3-13 2-5 9-5 8 0 9 5l3 13q1 10-3 13m70-35q-7-8-21-8c-14 0-16 3-20 8s-6 12-6 22 2 17 6 22q7 8 20 8c14 0 16-3 21-8q6-7 6-22c0-15-2-17-6-22m-11 35q-3 4-10 4t-9-4-3-13q0-12 3-13 3-5 9-5 9 0 10 5l2 13zM693 216v46h14v-46h17v-11h-48v11z"/></svg>