<?xml version="1.0" encoding="UTF-8"?>
<svg id="Layer_1" data-name="Layer 1" xmlns="http://www.w3.org/2000/svg" width="30cm" height="30cm" version="1.1" viewBox="0 0 850.4 850.4">
  <defs>
    <style>
      .cls-1 {
        fill: #007d7d;
      }

      .cls-1, .cls-2, .cls-3, .cls-4, .cls-5, .cls-6, .cls-7 {
        stroke-width: 0px;
      }

      .cls-2 {
        fill: #00c6a1;
      }

      .cls-3 {
        fill: #000;
      }

      .cls-4 {
        fill: #00ffaf;
      }

      .cls-5 {
        fill: #a3ffe2;
      }

      .cls-6 {
        fill: #64ffce;
      }

      .cls-7 {
        fill: #00b9b9;
      }
    </style>
  </defs>
  <circle class="cls-4" cx="425.2" cy="425.2" r="425.2"/>
  <polygon class="cls-5" points="181.5 681 264 586.4 259.9 469.8 192.7 527.9 181.5 681"/>
  <polygon class="cls-6" points="312.1 660.9 181.5 681 230.2 625.1 348.7 606.5 312.1 660.9"/>
  <polygon class="cls-1" points="348.7 606.5 264 586.4 263.2 563.9 481.3 410.1 348.7 606.5"/>
  <polygon class="cls-7" points="348.7 606.5 230.2 625.1 264 586.4 348.7 606.5"/>
  <polygon class="cls-1" points="263.2 563.9 290.2 461.6 259.9 469.8 263.2 563.9"/>
  <polygon class="cls-4" points="263.2 563.9 351.6 501.5 369.1 440.3 290.2 461.6 263.2 563.9"/>
  <polygon class="cls-7" points="351.6 501.5 481.3 410.1 369.1 440.3 351.6 501.5"/>
  <polygon class="cls-4" points="462.6 698.2 398.9 681.9 446.3 614.4 505.4 643.7 462.6 698.2"/>
  <polygon class="cls-2" points="446.3 614.4 398.9 681.9 414.3 509.4 435.6 540.9 446.3 614.4"/>
  <polygon class="cls-7" points="505.4 643.7 446.3 614.4 435.6 540.9 505.4 643.7"/>
  <polygon class="cls-6" points="670 659.4 614.5 614.2 613.1 593.6 643.3 570 670 659.4"/>
  <polygon class="cls-7" points="670 659.4 585.5 694.9 648.1 641.6 670 659.4"/>
  <polygon class="cls-5" points="648.1 641.6 585.5 694.9 524.6 672.1 563 628.1 614.5 614.2 648.1 641.6"/>
  <polygon class="cls-4" points="613.1 593.6 614.5 614.2 563 628.1 432 483.2 455 449.1 643.3 570 613.1 593.6"/>
  <polygon class="cls-1" points="524.6 672.1 563 628.1 432 483.2 414.3 509.4 524.6 672.1"/>
  <polygon class="cls-7" points="670 659.4 661.5 533.6 455 449.1 643.3 570 670 659.4"/>
  <polygon class="cls-5" points="639.1 467.1 578.6 499.7 554.6 441.6 612.3 400.1 639.1 467.1"/>
  <polygon class="cls-2" points="554.6 441.6 578.6 499.7 455 449.1 468.3 429.2 554.6 441.6"/>
  <polygon class="cls-7" points="612.3 400.1 554.6 441.6 468.3 429.2 481.3 410.1 612.3 400.1"/>
  <polygon class="cls-7" points="668.9 169.4 586.4 264 590.5 380.6 657.7 322.5 668.9 169.4"/>
  <polygon class="cls-5" points="538.3 189.5 668.9 169.4 620.2 225.3 501.7 243.9 538.3 189.5"/>
  <polygon class="cls-4" points="501.7 243.9 586.4 264 587.2 286.5 369.1 440.3 501.7 243.9"/>
  <polygon class="cls-1" points="501.7 243.9 620.2 225.3 586.4 264 501.7 243.9"/>
  <polygon class="cls-1" points="587.2 286.5 560.2 388.7 590.5 380.6 587.2 286.5"/>
  <polygon class="cls-2" points="587.2 286.5 498.8 348.9 481.3 410.1 560.2 388.7 587.2 286.5"/>
  <polygon class="cls-7" points="498.8 348.9 369.1 440.3 481.3 410.1 498.8 348.9"/>
  <polygon class="cls-5" points="387.7 152.2 451.5 168.5 404.1 235.9 345 206.7 387.7 152.2"/>
  <polygon class="cls-1" points="404.1 235.9 451.5 168.5 436.1 340.9 414.8 309.5 404.1 235.9"/>
  <polygon class="cls-2" points="345 206.7 404.1 235.9 414.8 309.5 345 206.7"/>
  <polygon class="cls-6" points="180.4 190.9 235.9 236.2 237.3 256.8 207.1 280.4 180.4 190.9"/>
  <polygon class="cls-6" points="180.4 190.9 264.9 155.5 202.3 208.7 180.4 190.9"/>
  <polygon class="cls-5" points="202.3 208.7 264.9 155.5 325.8 178.3 287.4 222.3 235.9 236.2 202.3 208.7"/>
  <polygon class="cls-4" points="237.3 256.8 235.9 236.2 287.4 222.3 418.4 367.2 395.4 401.3 207.1 280.4 237.3 256.8"/>
  <polygon class="cls-1" points="325.8 178.3 287.4 222.3 418.4 367.2 436.1 340.9 325.8 178.3"/>
  <polygon class="cls-1" points="180.4 190.9 188.9 316.8 395.4 401.3 207.1 280.4 180.4 190.9"/>
  <polygon class="cls-5" points="211.3 383.3 271.8 350.7 295.8 408.8 238.1 450.3 211.3 383.3"/>
  <polygon class="cls-2" points="295.8 408.8 271.8 350.7 395.4 401.3 382 421.1 295.8 408.8"/>
  <polygon class="cls-7" points="238.1 450.3 295.8 408.8 382 421.1 369.1 440.3 238.1 450.3"/>
  <path class="cls-3" d="M585.5,697h-.7l-60.8-22.8c-.4-.2-.8-.4-1-.8l-110.3-162.6c-.5-.7-.5-1.6,0-2.3l40.7-60.4c.6-.8,1.6-1.1,2.5-.8l206.5,84.6c.7.3,1.2,1,1.3,1.8l8.5,125.8c0,.9-.5,1.7-1.3,2.1l-84.5,35.4c-.3,0-.5.2-.8.2h0v-.2h-.1ZM526,670.4l59.4,22.3,82.4-34.5-8.3-123-203.7-83.4-39,57.8,109.2,160.9h0Z"/>
  <path class="cls-3" d="M524.6,674.2c-.5,0-1-.2-1.4-.5-.9-.8-1-2.1-.2-3l38.4-44c.3-.3.6-.5,1-.6l51.5-13.9c.6-.2,1.3,0,1.9.4l50.2,40.9-24.5-82.2-187.7-120.5c-1-.6-1.3-1.9-.6-2.9.6-1,1.9-1.3,2.9-.6l188.3,121c.4.3.7.7.9,1.2l26.7,89.4c.3.9,0,1.8-.8,2.3s-1.8.5-2.5,0l-54.6-44.6-49.8,13.5-38,43.5c-.4.5-1,.7-1.6.7h-.1Z"/>
  <path class="cls-3" d="M585.5,697c-.6,0-1.2-.2-1.6-.7-.7-.9-.6-2.2.2-2.9l62.7-53.2c.9-.7,2.2-.6,2.9.2s.6,2.2-.2,2.9l-62.7,53.2c-.4.3-.9.5-1.4.5h0Z"/>
  <path class="cls-3" d="M563,630.2c-.6,0-1.1-.2-1.6-.7l-131-145c-.8-.9-.7-2.2.1-3,.9-.8,2.2-.7,3,.1l130.2,144,48.6-13.1-1.3-18.9c0-.7.3-1.4.8-1.8l30.2-23.6c.9-.7,2.2-.5,2.9.4s.5,2.2-.4,2.9l-29.3,22.9,1.3,19.5c0,1-.6,1.9-1.5,2.2l-51.5,13.9h-.5v.2h0Z"/>
  <path class="cls-3" d="M462.6,700.3h-.5l-63.7-16.3c-1-.3-1.7-1.2-1.6-2.2l15.3-172.5c0-.9.7-1.6,1.6-1.8.9-.2,1.8.1,2.3.9l91.1,134.3c.5.8.5,1.8,0,2.5l-42.7,54.5c-.4.5-1,.8-1.6.8l-.2-.2h0ZM401.2,680.3l60.7,15.5,40.9-52.2-87-128.2-14.7,164.8h.1Z"/>
  <path class="cls-3" d="M446.3,616.5c-1,0-1.9-.8-2.1-1.8l-10.7-73.6c-.2-1.1.6-2.2,1.8-2.4,1.1-.2,2.2.6,2.4,1.8l10.7,73.6c.2,1.1-.6,2.2-1.8,2.4h-.3Z"/>
  <path class="cls-3" d="M181.5,683c-.5,0-1-.2-1.4-.6-.5-.4-.7-1.1-.7-1.7l11.2-153.1c0-.6.3-1.1.7-1.4l67.2-58c.2-.2.5-.4.8-.4l221.4-59.8c.8-.2,1.7,0,2.2.8.5.7.5,1.7,0,2.4l-169.2,250.8c-.3.5-.8.8-1.4.9l-130.6,20.1h-.3,0ZM194.7,528.9l-10.9,149.6,127.1-19.5,165.6-245.4-215.5,58.2-66.2,57.2h-.1Z"/>
  <path class="cls-3" d="M181.5,683c-.5,0-1-.2-1.4-.5-.9-.8-1-2.1-.2-3l81.9-94-4.1-115.7c0-1.2.9-2.1,2-2.2,1.1,0,2.1.9,2.2,2l4.1,116.5c0,.5-.2,1-.5,1.4l-82.5,94.6c-.4.5-1,.7-1.6.7v.2h0Z"/>
  <path class="cls-3" d="M351.6,503.6h-.6c-1.1-.3-1.8-1.5-1.4-2.6l17.5-61.2c.3-1.1,1.5-1.8,2.6-1.4,1.1.3,1.8,1.5,1.4,2.6l-17.5,61.2c-.3.9-1.1,1.5-2,1.5h0Z"/>
  <path class="cls-3" d="M263.2,566c-.4,0-.8,0-1.2-.4-.7-.5-1.1-1.4-.8-2.3l27-102.3c.3-1.1,1.4-1.8,2.6-1.5,1.1.3,1.8,1.4,1.5,2.6l-25.5,96.7,213.4-150.6c.9-.7,2.2-.4,2.9.5s.4,2.2-.5,2.9l-218.1,153.9c-.4.3-.8.4-1.2.4h0Z"/>
  <path class="cls-3" d="M230.2,627.2c-1,0-1.9-.7-2.1-1.8-.2-1.1.6-2.2,1.7-2.4l108.1-17-74.4-17.7c-1.1-.3-1.8-1.4-1.6-2.5.3-1.1,1.4-1.8,2.5-1.6l84.7,20.2c1,.2,1.6,1.1,1.6,2.1s-.8,1.8-1.8,2l-118.6,18.6h-.3.2Z"/>
  <path class="cls-3" d="M578.6,501.8c-.3,0-.5,0-.8-.2l-123.6-50.6c-.6-.2-1-.7-1.2-1.3s0-1.3.3-1.8l26.3-39c.4-.5.9-.9,1.6-.9l131-10c.9,0,1.8.5,2.1,1.3l26.8,67.1c.4,1,0,2.1-1,2.6l-60.5,32.6c-.3.2-.6.2-1,.2h0ZM458.2,448.1l120.3,49.3,58-31.2-25.5-63.9-128.5,9.8-24.3,36h0Z"/>
  <path class="cls-3" d="M578.6,501.8c-.8,0-1.6-.5-1.9-1.3l-24.1-58.1c-.4-.9,0-1.9.7-2.5l57.8-41.5c.9-.7,2.2-.5,2.9.5.7.9.5,2.2-.5,2.9l-56.4,40.5,23.4,56.6c.4,1.1,0,2.3-1.1,2.7-.3.1-.5.2-.8.2h0Z"/>
  <path class="cls-3" d="M554.6,443.7h-.3l-86.2-12.3c-1.1-.2-1.9-1.2-1.8-2.4.2-1.1,1.2-1.9,2.4-1.8l86.2,12.3c1.1.2,1.9,1.2,1.8,2.4,0,1-1,1.8-2.1,1.8Z"/>
  <path class="cls-3" d="M398.9,684c-.4,0-.8,0-1.2-.4-.9-.7-1.2-2-.5-2.9l47.3-67.5c.6-.8,1.7-1.1,2.6-.7l59.1,29.3c1,.5,1.5,1.8.9,2.8-.5,1-1.8,1.5-2.8.9l-57.5-28.5-46.3,66c-.4.6-1.1.9-1.7.9h.1Z"/>
  <path class="cls-3" d="M395.4,403.4c-.3,0-.5,0-.8-.2l-206.5-84.6c-.7-.3-1.2-1-1.3-1.8l-8.5-125.8c0-.9.5-1.7,1.3-2.1l84.5-35.4c.5-.2,1-.2,1.5,0l60.8,22.8c.4.2.8.4,1,.8l110.4,162.6c.5.7.5,1.6,0,2.3l-40.7,60.4c-.4.6-1.1.9-1.7.9h0ZM190.9,315.3l203.7,83.4,39-57.8-109.2-160.9-59.4-22.3-82.4,34.5,8.3,123h0Z"/>
  <path class="cls-3" d="M395.4,403.4c-.4,0-.8-.1-1.1-.3l-188.3-121c-.4-.3-.7-.7-.9-1.2l-26.7-89.4c-.3-.9,0-1.8.8-2.3s1.8-.5,2.5.1l54.6,44.6,49.8-13.5,38-43.5c.8-.9,2.1-1,3-.2s1,2.1.2,3l-38.4,44c-.3.3-.6.5-1,.6l-51.5,13.9c-.7.2-1.3,0-1.9-.4l-50.2-40.9,24.5,82.2,187.7,120.5c1,.6,1.3,1.9.6,2.9-.4.6-1.1,1-1.8,1h0Z"/>
  <path class="cls-3" d="M202.3,210.8c-.6,0-1.2-.3-1.6-.7-.7-.9-.6-2.2.2-2.9l62.7-53.2c.9-.7,2.2-.6,2.9.2.7.9.6,2.2-.2,2.9l-62.7,53.2c-.4.3-.9.5-1.4.5h.1Z"/>
  <path class="cls-3" d="M418.4,369.3c-.6,0-1.1-.2-1.6-.7l-130.2-144-48.6,13.1,1.3,18.9c0,.7-.3,1.4-.8,1.8l-30.2,23.6c-.9.7-2.2.5-2.9-.4s-.5-2.2.4-2.9l29.3-22.9-1.3-19.5c0-1,.6-1.9,1.5-2.2l51.5-13.9c.8-.2,1.6,0,2.1.6l131,144.9c.8.9.7,2.2-.1,3-.4.4-.9.5-1.4.5h0Z"/>
  <path class="cls-3" d="M436.1,343c-.7,0-1.3-.3-1.7-.9l-91.1-134.3c-.5-.8-.5-1.8,0-2.5l42.7-54.5c.5-.7,1.4-.9,2.2-.7l63.7,16.3c1,.3,1.7,1.2,1.6,2.2l-15.3,172.5c0,.9-.7,1.6-1.6,1.8h-.5ZM347.6,206.7l87,128.2,14.7-164.8-60.7-15.5-40.9,52.2h-.1Z"/>
  <path class="cls-3" d="M414.8,311.6c-1,0-1.9-.8-2.1-1.8l-10.7-73.6c-.2-1.1.6-2.2,1.8-2.4,1.1-.2,2.2.6,2.4,1.8l10.7,73.6c.2,1.1-.6,2.2-1.8,2.4h-.3Z"/>
  <path class="cls-3" d="M369.1,442.4c-.7,0-1.3-.3-1.7-.9-.5-.7-.5-1.7,0-2.4l169.2-250.8c.3-.5.8-.8,1.4-.9l130.6-20.1c.6,0,1.3,0,1.7.5.5.4.7,1.1.7,1.7l-11.2,153.1c0,.6-.3,1.1-.7,1.4l-67.2,58c-.2.2-.5.4-.8.4l-221.4,59.8h-.5v.2h0ZM539.5,191.4l-165.6,245.4,215.5-58.2,66.2-57.2,10.9-149.6-127.1,19.5h0Z"/>
  <path class="cls-3" d="M590.5,382.7c-1.1,0-2-.9-2.1-2l-4.1-116.5c0-.5.2-1,.5-1.4l82.5-94.6c.8-.9,2.1-1,3-.2s1,2.1.2,3l-81.9,94,4.1,115.7c0,1.2-.9,2.1-2,2.2h0l-.2-.2Z"/>
  <path class="cls-3" d="M481.3,412.1h-.6c-1.1-.3-1.8-1.5-1.4-2.6l17.5-61.2c.3-1.1,1.5-1.8,2.6-1.4,1.1.3,1.8,1.5,1.4,2.6l-17.5,61.2c-.3.9-1.1,1.5-2,1.5h0Z"/>
  <path class="cls-3" d="M369.1,442.4c-.7,0-1.3-.3-1.7-.9-.7-.9-.4-2.2.5-2.9l218.1-153.9c.7-.5,1.7-.5,2.4,0s1.1,1.4.8,2.3l-27,102.3c-.3,1.1-1.4,1.8-2.6,1.5-1.1-.3-1.8-1.4-1.5-2.6l25.5-96.7-213.4,150.6c-.4.3-.8.4-1.2.4h0Z"/>
  <path class="cls-3" d="M586.4,266.1h-.5l-84.7-20.2c-1-.2-1.6-1.1-1.6-2.1s.8-1.8,1.8-2l118.6-18.6c1.1-.2,2.2.6,2.4,1.7.2,1.1-.6,2.2-1.7,2.4l-108.1,17,74.4,17.7c1.1.3,1.8,1.4,1.6,2.5-.2,1-1.1,1.6-2,1.6h-.2Z"/>
  <path class="cls-3" d="M238.1,452.4c-.8,0-1.6-.5-1.9-1.3l-26.8-67.1c-.4-1,0-2.1,1-2.6l60.5-32.6c.6-.3,1.2-.3,1.8,0l123.6,50.6c.6.2,1,.7,1.2,1.3s0,1.3-.3,1.8l-26.3,39c-.4.5-.9.9-1.6.9l-131,10h-.2ZM213.9,384.2l25.5,63.9,128.5-9.8,24.3-36-120.3-49.3-58,31.2h0Z"/>
  <path class="cls-3" d="M238.1,452.4c-.7,0-1.3-.3-1.7-.9-.7-.9-.5-2.2.5-2.9l56.4-40.5-23.4-56.6c-.4-1.1,0-2.3,1.1-2.7,1.1-.4,2.3,0,2.7,1.1l24.1,58.1c.4.9,0,1.9-.7,2.5l-57.8,41.5c-.4.3-.8.4-1.2.4h0Z"/>
  <path class="cls-3" d="M382.1,423.2h-.3l-86.2-12.3c-1.1-.2-1.9-1.2-1.8-2.4.2-1.1,1.2-1.9,2.4-1.8l86.2,12.3c1.1.2,1.9,1.2,1.8,2.4-.1,1-1,1.8-2.1,1.8Z"/>
  <path class="cls-3" d="M404.1,238c-.3,0-.6,0-.9-.2l-59.1-29.3c-1-.5-1.5-1.8-.9-2.8.5-1,1.8-1.5,2.8-.9l57.5,28.5,46.3-66c.7-.9,2-1.2,2.9-.5s1.2,2,.5,2.9l-47.3,67.5c-.4.6-1,.9-1.7.9h0Z"/>
  <polygon class="cls-5" points="353.7 419.4 425.2 326.8 425.2 443.2 353.7 419.4"/>
  <polygon class="cls-2" points="425.2 443.2 425.2 326.8 496.7 419.4 425.2 443.2"/>
  <polygon class="cls-2" points="425.2 443.2 353.7 419.4 425.2 523.6 425.2 443.2"/>
  <polygon class="cls-1" points="496.7 419.4 425.2 523.6 425.2 443.2 496.7 419.4"/>
  <polygon class="cls-4" points="478.1 395.4 468.1 429 496.7 419.4 478.1 395.4"/>
  <polygon class="cls-4" points="368.2 440.6 353.7 419.4 395.3 433.3 368.2 440.6"/>
  <polygon class="cls-7" points="425.2 443.2 456.2 432.9 425.2 523.6 425.2 443.2"/>
  <path class="cls-3" d="M425.2,525.7c-.7,0-1.3-.3-1.7-.9l-71.5-104.2c-.5-.7-.5-1.7,0-2.5l71.5-92.7c.8-1,2.5-1,3.3,0l71.5,92.7c.6.7.6,1.7,0,2.5l-71.5,104.2c-.4.6-1,.9-1.7.9h.1ZM356.2,419.5l69,100.4,69-100.4-69-89.3-69,89.3Z"/>
  <path class="cls-3" d="M425.2,525.7c-1.2,0-2.1-.9-2.1-2.1v-79l-70.1-23.2c-1.1-.4-1.7-1.5-1.3-2.6.4-1.1,1.5-1.7,2.6-1.3l71.5,23.7c.9.3,1.4,1.1,1.4,2v80.5c0,1.2-.9,2.1-2.1,2.1h.1Z"/>
  <path class="cls-3" d="M425.2,525.7c-1.2,0-2.1-.9-2.1-2.1v-80.5c0-.9.6-1.7,1.4-2l71.5-23.7c1.1-.4,2.3.2,2.6,1.3.4,1.1-.2,2.3-1.3,2.6l-70.1,23.2v79c0,1.2-.9,2.1-2.1,2.1h.1Z"/>
  <path class="cls-3" d="M425.2,445.3c-1.2,0-2.1-.9-2.1-2.1v-116.4c0-1.2.9-2.1,2.1-2.1s2.1.9,2.1,2.1v116.4c0,1.2-.9,2.1-2.1,2.1Z"/>
  <path class="cls-3" d="M468.1,431h-.6c-1.1-.3-1.7-1.5-1.4-2.6l10.1-33.6c.3-1.1,1.5-1.7,2.6-1.4,1.1.3,1.7,1.5,1.4,2.6l-10.1,33.6c-.3.9-1.1,1.5-2,1.5h0Z"/>
  <path class="cls-3" d="M425.2,525.7h-.7c-1.1-.4-1.7-1.6-1.3-2.7l31-90.8c.4-1.1,1.6-1.7,2.7-1.3s1.7,1.6,1.3,2.7l-31,90.8c-.3.9-1.1,1.4-2,1.4h0Z"/>
  <path class="cls-3" d="M368.2,442.7c-.9,0-1.8-.6-2-1.5-.3-1.1.4-2.3,1.5-2.6l27.2-7.3c1.1-.3,2.3.4,2.6,1.5s-.4,2.3-1.5,2.6l-27.2,7.3h-.6Z"/>
  <path class="cls-3" d="M421.8,729h8.7l12.3,32.1h-8.4l-2.9-7.3h-10.7l-2.8,7.3h-8.4l12.3-32.1h-.1ZM430.4,747.9l-4.3-11.2-4.2,11.2h8.5Z"/>
  <path class="cls-3" d="M320.3,729h15.8c3.7,0,6.5,1.1,8.4,3.2,1.9,2.1,2.9,4.9,2.9,8.3s-.5,4.1-1.4,5.8-2.3,3-4,4c-1.7.9-3.8,1.4-6.1,1.4h-7.6v9.4h-8v-32.1h0ZM334.2,745.5c1.7,0,2.9-.5,3.8-1.4s1.3-2.2,1.3-3.7-.4-3-1.2-3.9c-.8-.9-2-1.3-3.6-1.3h-6v10.3h5.8,0Z"/>
  <path class="cls-3" d="M350.6,729h8v25.9h15.2v6.2h-23.2v-32.1h0Z"/>
  <path class="cls-3" d="M387.3,729h8.7l12.3,32.1h-8.4l-2.9-7.3h-10.7l-2.8,7.3h-8.4l12.3-32.1h-.1ZM395.9,747.9l-4.3-11.2-4.2,11.2h8.5Z"/>
  <path class="cls-3" d="M451.7,749.3l-11.5-20.3h8.4l7.2,13.3,7.2-13.3h8.4l-11.5,20.3v11.8h-8.1v-11.8h-.1Z"/>
  <path class="cls-3" d="M475.3,729h23.7v6.2h-15.7v6.7h13.8v6.3h-13.8v6.7h15.7v6.2h-23.7v-32.1h0Z"/>
  <path class="cls-3" d="M502.8,729h16.1c3.7,0,6.5,1,8.3,2.9s2.8,4.6,2.8,8.1-.5,4.1-1.6,5.7c-1.1,1.6-2.6,2.8-4.5,3.6.4.4.8.8,1.1,1.2.3.4.6,1.1,1,1.9l3.8,8.7h-8.4l-3.6-8.2c-.3-.7-.7-1.2-1.1-1.5-.5-.3-1.1-.4-2-.4h-3.7v10.2h-8v-32.1h-.2,0ZM516.8,744.8c1.6,0,2.8-.4,3.7-1.2s1.3-2,1.3-3.5c0-3.2-1.5-4.8-4.6-4.8h-6.3v9.6h5.9Z"/>
  <path class="cls-3" d="M314.2,81.5h16.1c3.7,0,6.5,1,8.3,2.9s2.8,4.6,2.8,8.1-.5,4.1-1.6,5.7-2.6,2.8-4.5,3.6c.4.4.8.8,1.1,1.2.3.4.6,1.1,1,1.9l3.8,8.7h-8.4l-3.6-8.2c-.3-.7-.7-1.2-1.1-1.5-.5-.3-1.1-.4-2-.4h-3.7v10.2h-8v-32.1h-.2,0ZM328.2,97.2c1.6,0,2.8-.4,3.7-1.2.9-.8,1.3-2,1.3-3.5,0-3.2-1.5-4.8-4.6-4.8h-6.3v9.6h5.9Z"/>
  <path class="cls-3" d="M354.4,81.5h8.7l12.3,32.1h-8.4l-2.9-7.3h-10.7l-2.8,7.3h-8.4l12.3-32.1h-.1ZM363,100.3l-4.3-11.2-4.2,11.2h8.5Z"/>
  <path class="cls-3" d="M389,81.5h8.7l12.3,32.1h-8.4l-2.9-7.3h-10.7l-2.8,7.3h-8.4l12.3-32.1h-.1ZM397.5,100.3l-4.3-11.2-4.2,11.2h8.5Z"/>
  <path class="cls-3" d="M414,81.5h6.9l13.7,19.2v-19.2h8.1v32.1h-6.9l-13.7-19.1v19.1h-8v-32.1h-.1Z"/>
  <path class="cls-3" d="M447.7,81.5h8v12.5l11.1-12.5h9.2l-11.5,13.1,12.2,19h-8.6l-8.6-13.9-3.8,4.1v9.7h-8v-32.1h0Z"/>
  <path class="cls-3" d="M480.7,81.5h23.7v6.2h-15.7v6.7h13.8v6.3h-13.8v6.7h15.7v6.2h-23.7s0-32.1,0-32.1Z"/>
  <path class="cls-3" d="M508.3,81.5h13.9c5,0,8.8,1.3,11.3,3.8,2.5,2.6,3.8,6.7,3.8,12.4s-1.3,9.4-3.8,12-6.3,3.9-11.3,3.9h-13.9v-32.1h0ZM521.1,107.4c1.9,0,3.4-.3,4.5-.8s2-1.5,2.6-2.9.9-3.4.9-6-.3-4.7-.8-6.1-1.4-2.5-2.5-3.1-2.7-.9-4.6-.9h-4.8v19.7h4.8-.1Z"/>
  <path class="cls-3" d="M699.3,415.6c-1.8-.3-3.4-.8-4.8-1.4v-6.8c1.5.7,3.1,1.2,4.9,1.6,1.8.4,3.4.6,5,.6s3.7-.2,4.6-.6c.9-.4,1.3-1.2,1.3-2.4s-.2-1.5-.7-2-1.2-.9-2.1-1.2c-.9-.3-2.5-.8-4.7-1.5s-4-1.4-5.3-2.2c-1.3-.8-2.2-1.8-2.8-2.9s-.8-2.6-.8-4.3c0-3.1,1.1-5.4,3.3-7.1,2.2-1.6,5.4-2.4,9.7-2.4s3.5.1,5.3.4,3.2.6,4.4,1v6.9c-2.8-1.1-5.6-1.6-8.5-1.6s-3.5.2-4.5.6-1.5,1.1-1.5,2.2.2,1.3.6,1.7c.4.4,1,.8,1.9,1.1.9.3,2.3.7,4.2,1.2,2.6.7,4.5,1.5,6,2.5,1.4,1,2.4,2.1,2.9,3.3.5,1.2.8,2.7.8,4.4,0,2.9-1.1,5.2-3.4,6.9-2.3,1.7-5.6,2.5-10,2.5s-4.1-.2-6-.5h.2,0Z"/>
  <path class="cls-3" d="M719.9,411.4l15.1-21.6h-14.3v-6.4h24.8v4.5l-14.9,21.4h15.2v6.2h-25.9v-4.1h0Z"/>
  <path class="cls-3" d="M748,383.4h6.9l13.7,19.2v-19.2h8.1v32.1h-6.9l-13.7-19.1v19.1h-8v-32.1h0Z"/>
  <path class="cls-3" d="M717.4,434.4l-5.3.8v-6.7l13.3-2v32.6h-8v-24.7h0Z"/>
  <path class="cls-3" d="M733.1,455.8c-2.3-2.8-3.5-7-3.5-12.5s1.2-9.7,3.5-12.5,6.1-4.2,11.4-4.2,9.1,1.4,11.4,4.2c2.4,2.8,3.5,7,3.5,12.5s-1.2,9.7-3.5,12.5c-2.4,2.8-6.2,4.2-11.4,4.2s-9-1.4-11.4-4.2ZM749.7,450.7c1-1.6,1.5-4.1,1.5-7.5s-.5-5.8-1.5-7.5c-1-1.6-2.8-2.4-5.2-2.4s-4.2.8-5.2,2.4-1.5,4.1-1.5,7.5.5,5.8,1.5,7.5c1,1.6,2.8,2.4,5.2,2.4s4.2-.8,5.2-2.4Z"/>
  <path class="cls-3" d="M79.1,415.6c-1.8-.3-3.4-.8-4.8-1.4v-6.8c1.5.7,3.1,1.2,4.9,1.6s3.4.6,5,.6,3.7-.2,4.6-.6,1.3-1.2,1.3-2.4-.2-1.5-.7-2-1.2-.9-2.1-1.2c-.9-.3-2.5-.8-4.7-1.5s-4-1.4-5.3-2.2c-1.3-.8-2.2-1.8-2.8-2.9s-.8-2.6-.8-4.3c0-3.1,1.1-5.4,3.3-7.1,2.2-1.6,5.4-2.4,9.7-2.4s3.5.1,5.3.4,3.2.6,4.4,1v6.9c-2.8-1.1-5.6-1.6-8.5-1.6s-3.5.2-4.5.6-1.5,1.1-1.5,2.2.2,1.3.6,1.7c.4.4,1,.8,1.9,1.1.9.3,2.3.7,4.2,1.2,2.6.7,4.5,1.5,6,2.5,1.4,1,2.4,2.1,2.9,3.3.5,1.2.8,2.7.8,4.4,0,2.9-1.1,5.2-3.4,6.9-2.3,1.7-5.6,2.5-10,2.5s-4.1-.2-6-.5h.2Z"/>
  <path class="cls-3" d="M99.7,411.4l15.1-21.6h-14.3v-6.4h24.8v4.5l-14.9,21.4h15.2v6.2h-25.9v-4.1h0Z"/>
  <path class="cls-3" d="M127.8,383.4h6.9l13.7,19.2v-19.2h8.1v32.1h-6.9l-13.7-19.1v19.1h-8v-32.1h-.1Z"/>
  <path class="cls-3" d="M97.2,434.4l-5.3.8v-6.7l13.3-2v32.6h-8v-24.7h0Z"/>
  <path class="cls-3" d="M112.9,455.8c-2.3-2.8-3.5-7-3.5-12.5s1.2-9.7,3.5-12.5,6.1-4.2,11.4-4.2,9.1,1.4,11.4,4.2c2.4,2.8,3.5,7,3.5,12.5s-1.2,9.7-3.5,12.5c-2.4,2.8-6.2,4.2-11.4,4.2s-9-1.4-11.4-4.2ZM129.5,450.7c1-1.6,1.5-4.1,1.5-7.5s-.5-5.8-1.5-7.5c-1-1.6-2.8-2.4-5.2-2.4s-4.2.8-5.2,2.4-1.5,4.1-1.5,7.5.5,5.8,1.5,7.5c1,1.6,2.8,2.4,5.2,2.4s4.2-.8,5.2-2.4Z"/>
</svg>